<?xml version="1.0" encoding="utf-8" standalone="no"?>
<!DOCTYPE svg PUBLIC "-//W3C//DTD SVG 1.1//EN"
  "http://www.w3.org/Graphics/SVG/1.1/DTD/svg11.dtd">
<svg xmlns:xlink="http://www.w3.org/1999/xlink" width="360.71625pt" height="143.804625pt" viewBox="0 0 360.71625 143.804625" xmlns="http://www.w3.org/2000/svg" version="1.1">
 <metadata>
  <rdf:RDF xmlns:dc="http://purl.org/dc/elements/1.1/" xmlns:cc="http://creativecommons.org/ns#" xmlns:rdf="http://www.w3.org/1999/02/22-rdf-syntax-ns#">
   <cc:Work>
    <dc:type rdf:resource="http://purl.org/dc/dcmitype/StillImage"/>
    <dc:date>2023-08-06T15:50:05.283108</dc:date>
    <dc:format>image/svg+xml</dc:format>
    <dc:creator>
     <cc:Agent>
      <dc:title>Matplotlib v3.7.1, https://matplotlib.org/</dc:title>
     </cc:Agent>
    </dc:creator>
   </cc:Work>
  </rdf:RDF>
 </metadata>
 <defs>
  <style type="text/css">*{stroke-linejoin: round; stroke-linecap: butt}</style>
 </defs>
 <g id="figure_1">
  <g id="patch_1">
   <path d="M -0 143.804625 
L 360.71625 143.804625 
L 360.71625 0 
L -0 0 
L -0 143.804625 
z
" style="fill: none"/>
  </g>
  <g id="axes_1">
   <g id="patch_2">
    <path d="M 37.36625 113.990875 
L 174.39375 113.990875 
L 174.39375 18.670875 
L 37.36625 18.670875 
L 37.36625 113.990875 
z
" style="fill: none"/>
   </g>
   <g id="matplotlib.axis_1">
    <g id="xtick_1">
     <g id="line2d_1">
      <path d="M 37.36625 113.990875 
L 37.36625 18.670875 
" clip-path="url(#p78aa567ac2)" style="fill: none; stroke: #b0b0b0; stroke-width: 0.8; stroke-linecap: square"/>
     </g>
     <g id="line2d_2">
      <defs>
       <path id="meb95680b99" d="M 0 0 
L 0 3.5 
" style="stroke: #000000; stroke-width: 0.8"/>
      </defs>
      <g>
       <use xlink:href="#meb95680b99" x="37.36625" y="113.990875" style="stroke: #000000; stroke-width: 0.8"/>
      </g>
     </g>
     <g id="text_1">
      <!-- 0.0 -->
      <g transform="translate(32.595312 125.549937) scale(0.06 -0.06)">
       <defs>
        <path id="DejaVuSans-30" d="M 2034 4250 
Q 1547 4250 1301 3770 
Q 1056 3291 1056 2328 
Q 1056 1369 1301 889 
Q 1547 409 2034 409 
Q 2525 409 2770 889 
Q 3016 1369 3016 2328 
Q 3016 3291 2770 3770 
Q 2525 4250 2034 4250 
z
M 2034 4750 
Q 2819 4750 3233 4129 
Q 3647 3509 3647 2328 
Q 3647 1150 3233 529 
Q 2819 -91 2034 -91 
Q 1250 -91 836 529 
Q 422 1150 422 2328 
Q 422 3509 836 4129 
Q 1250 4750 2034 4750 
z
" transform="scale(0.015625)"/>
        <path id="DejaVuSans-2e" d="M 684 794 
L 1344 794 
L 1344 0 
L 684 0 
L 684 794 
z
" transform="scale(0.015625)"/>
       </defs>
       <use xlink:href="#DejaVuSans-30"/>
       <use xlink:href="#DejaVuSans-2e" x="63.623047"/>
       <use xlink:href="#DejaVuSans-30" x="95.410156"/>
      </g>
     </g>
    </g>
    <g id="xtick_2">
     <g id="line2d_3">
      <path d="M 71.623125 113.990875 
L 71.623125 18.670875 
" clip-path="url(#p78aa567ac2)" style="fill: none; stroke: #b0b0b0; stroke-width: 0.8; stroke-linecap: square"/>
     </g>
     <g id="line2d_4">
      <g>
       <use xlink:href="#meb95680b99" x="71.623125" y="113.990875" style="stroke: #000000; stroke-width: 0.8"/>
      </g>
     </g>
     <g id="text_2">
      <!-- 0.5 -->
      <g transform="translate(66.852187 125.549937) scale(0.06 -0.06)">
       <defs>
        <path id="DejaVuSans-35" d="M 691 4666 
L 3169 4666 
L 3169 4134 
L 1269 4134 
L 1269 2991 
Q 1406 3038 1543 3061 
Q 1681 3084 1819 3084 
Q 2600 3084 3056 2656 
Q 3513 2228 3513 1497 
Q 3513 744 3044 326 
Q 2575 -91 1722 -91 
Q 1428 -91 1123 -41 
Q 819 9 494 109 
L 494 744 
Q 775 591 1075 516 
Q 1375 441 1709 441 
Q 2250 441 2565 725 
Q 2881 1009 2881 1497 
Q 2881 1984 2565 2268 
Q 2250 2553 1709 2553 
Q 1456 2553 1204 2497 
Q 953 2441 691 2322 
L 691 4666 
z
" transform="scale(0.015625)"/>
       </defs>
       <use xlink:href="#DejaVuSans-30"/>
       <use xlink:href="#DejaVuSans-2e" x="63.623047"/>
       <use xlink:href="#DejaVuSans-35" x="95.410156"/>
      </g>
     </g>
    </g>
    <g id="xtick_3">
     <g id="line2d_5">
      <path d="M 105.88 113.990875 
L 105.88 18.670875 
" clip-path="url(#p78aa567ac2)" style="fill: none; stroke: #b0b0b0; stroke-width: 0.8; stroke-linecap: square"/>
     </g>
     <g id="line2d_6">
      <g>
       <use xlink:href="#meb95680b99" x="105.88" y="113.990875" style="stroke: #000000; stroke-width: 0.8"/>
      </g>
     </g>
     <g id="text_3">
      <!-- 1.0 -->
      <g transform="translate(101.109062 125.549937) scale(0.06 -0.06)">
       <defs>
        <path id="DejaVuSans-31" d="M 794 531 
L 1825 531 
L 1825 4091 
L 703 3866 
L 703 4441 
L 1819 4666 
L 2450 4666 
L 2450 531 
L 3481 531 
L 3481 0 
L 794 0 
L 794 531 
z
" transform="scale(0.015625)"/>
       </defs>
       <use xlink:href="#DejaVuSans-31"/>
       <use xlink:href="#DejaVuSans-2e" x="63.623047"/>
       <use xlink:href="#DejaVuSans-30" x="95.410156"/>
      </g>
     </g>
    </g>
    <g id="xtick_4">
     <g id="line2d_7">
      <path d="M 140.136875 113.990875 
L 140.136875 18.670875 
" clip-path="url(#p78aa567ac2)" style="fill: none; stroke: #b0b0b0; stroke-width: 0.8; stroke-linecap: square"/>
     </g>
     <g id="line2d_8">
      <g>
       <use xlink:href="#meb95680b99" x="140.136875" y="113.990875" style="stroke: #000000; stroke-width: 0.8"/>
      </g>
     </g>
     <g id="text_4">
      <!-- 1.5 -->
      <g transform="translate(135.365937 125.549937) scale(0.06 -0.06)">
       <use xlink:href="#DejaVuSans-31"/>
       <use xlink:href="#DejaVuSans-2e" x="63.623047"/>
       <use xlink:href="#DejaVuSans-35" x="95.410156"/>
      </g>
     </g>
    </g>
    <g id="xtick_5">
     <g id="line2d_9">
      <path d="M 174.39375 113.990875 
L 174.39375 18.670875 
" clip-path="url(#p78aa567ac2)" style="fill: none; stroke: #b0b0b0; stroke-width: 0.8; stroke-linecap: square"/>
     </g>
     <g id="line2d_10">
      <g>
       <use xlink:href="#meb95680b99" x="174.39375" y="113.990875" style="stroke: #000000; stroke-width: 0.8"/>
      </g>
     </g>
     <g id="text_5">
      <!-- 2.0 -->
      <g transform="translate(169.622812 125.549937) scale(0.06 -0.06)">
       <defs>
        <path id="DejaVuSans-32" d="M 1228 531 
L 3431 531 
L 3431 0 
L 469 0 
L 469 531 
Q 828 903 1448 1529 
Q 2069 2156 2228 2338 
Q 2531 2678 2651 2914 
Q 2772 3150 2772 3378 
Q 2772 3750 2511 3984 
Q 2250 4219 1831 4219 
Q 1534 4219 1204 4116 
Q 875 4013 500 3803 
L 500 4441 
Q 881 4594 1212 4672 
Q 1544 4750 1819 4750 
Q 2544 4750 2975 4387 
Q 3406 4025 3406 3419 
Q 3406 3131 3298 2873 
Q 3191 2616 2906 2266 
Q 2828 2175 2409 1742 
Q 1991 1309 1228 531 
z
" transform="scale(0.015625)"/>
       </defs>
       <use xlink:href="#DejaVuSans-32"/>
       <use xlink:href="#DejaVuSans-2e" x="63.623047"/>
       <use xlink:href="#DejaVuSans-30" x="95.410156"/>
      </g>
     </g>
    </g>
    <g id="text_6">
     <!-- bits per pixel (bpp) -->
     <g transform="translate(77.405312 135.356812) scale(0.06 -0.06)">
      <defs>
       <path id="DejaVuSans-62" d="M 3116 1747 
Q 3116 2381 2855 2742 
Q 2594 3103 2138 3103 
Q 1681 3103 1420 2742 
Q 1159 2381 1159 1747 
Q 1159 1113 1420 752 
Q 1681 391 2138 391 
Q 2594 391 2855 752 
Q 3116 1113 3116 1747 
z
M 1159 2969 
Q 1341 3281 1617 3432 
Q 1894 3584 2278 3584 
Q 2916 3584 3314 3078 
Q 3713 2572 3713 1747 
Q 3713 922 3314 415 
Q 2916 -91 2278 -91 
Q 1894 -91 1617 61 
Q 1341 213 1159 525 
L 1159 0 
L 581 0 
L 581 4863 
L 1159 4863 
L 1159 2969 
z
" transform="scale(0.015625)"/>
       <path id="DejaVuSans-69" d="M 603 3500 
L 1178 3500 
L 1178 0 
L 603 0 
L 603 3500 
z
M 603 4863 
L 1178 4863 
L 1178 4134 
L 603 4134 
L 603 4863 
z
" transform="scale(0.015625)"/>
       <path id="DejaVuSans-74" d="M 1172 4494 
L 1172 3500 
L 2356 3500 
L 2356 3053 
L 1172 3053 
L 1172 1153 
Q 1172 725 1289 603 
Q 1406 481 1766 481 
L 2356 481 
L 2356 0 
L 1766 0 
Q 1100 0 847 248 
Q 594 497 594 1153 
L 594 3053 
L 172 3053 
L 172 3500 
L 594 3500 
L 594 4494 
L 1172 4494 
z
" transform="scale(0.015625)"/>
       <path id="DejaVuSans-73" d="M 2834 3397 
L 2834 2853 
Q 2591 2978 2328 3040 
Q 2066 3103 1784 3103 
Q 1356 3103 1142 2972 
Q 928 2841 928 2578 
Q 928 2378 1081 2264 
Q 1234 2150 1697 2047 
L 1894 2003 
Q 2506 1872 2764 1633 
Q 3022 1394 3022 966 
Q 3022 478 2636 193 
Q 2250 -91 1575 -91 
Q 1294 -91 989 -36 
Q 684 19 347 128 
L 347 722 
Q 666 556 975 473 
Q 1284 391 1588 391 
Q 1994 391 2212 530 
Q 2431 669 2431 922 
Q 2431 1156 2273 1281 
Q 2116 1406 1581 1522 
L 1381 1569 
Q 847 1681 609 1914 
Q 372 2147 372 2553 
Q 372 3047 722 3315 
Q 1072 3584 1716 3584 
Q 2034 3584 2315 3537 
Q 2597 3491 2834 3397 
z
" transform="scale(0.015625)"/>
       <path id="DejaVuSans-20" transform="scale(0.015625)"/>
       <path id="DejaVuSans-70" d="M 1159 525 
L 1159 -1331 
L 581 -1331 
L 581 3500 
L 1159 3500 
L 1159 2969 
Q 1341 3281 1617 3432 
Q 1894 3584 2278 3584 
Q 2916 3584 3314 3078 
Q 3713 2572 3713 1747 
Q 3713 922 3314 415 
Q 2916 -91 2278 -91 
Q 1894 -91 1617 61 
Q 1341 213 1159 525 
z
M 3116 1747 
Q 3116 2381 2855 2742 
Q 2594 3103 2138 3103 
Q 1681 3103 1420 2742 
Q 1159 2381 1159 1747 
Q 1159 1113 1420 752 
Q 1681 391 2138 391 
Q 2594 391 2855 752 
Q 3116 1113 3116 1747 
z
" transform="scale(0.015625)"/>
       <path id="DejaVuSans-65" d="M 3597 1894 
L 3597 1613 
L 953 1613 
Q 991 1019 1311 708 
Q 1631 397 2203 397 
Q 2534 397 2845 478 
Q 3156 559 3463 722 
L 3463 178 
Q 3153 47 2828 -22 
Q 2503 -91 2169 -91 
Q 1331 -91 842 396 
Q 353 884 353 1716 
Q 353 2575 817 3079 
Q 1281 3584 2069 3584 
Q 2775 3584 3186 3129 
Q 3597 2675 3597 1894 
z
M 3022 2063 
Q 3016 2534 2758 2815 
Q 2500 3097 2075 3097 
Q 1594 3097 1305 2825 
Q 1016 2553 972 2059 
L 3022 2063 
z
" transform="scale(0.015625)"/>
       <path id="DejaVuSans-72" d="M 2631 2963 
Q 2534 3019 2420 3045 
Q 2306 3072 2169 3072 
Q 1681 3072 1420 2755 
Q 1159 2438 1159 1844 
L 1159 0 
L 581 0 
L 581 3500 
L 1159 3500 
L 1159 2956 
Q 1341 3275 1631 3429 
Q 1922 3584 2338 3584 
Q 2397 3584 2469 3576 
Q 2541 3569 2628 3553 
L 2631 2963 
z
" transform="scale(0.015625)"/>
       <path id="DejaVuSans-78" d="M 3513 3500 
L 2247 1797 
L 3578 0 
L 2900 0 
L 1881 1375 
L 863 0 
L 184 0 
L 1544 1831 
L 300 3500 
L 978 3500 
L 1906 2253 
L 2834 3500 
L 3513 3500 
z
" transform="scale(0.015625)"/>
       <path id="DejaVuSans-6c" d="M 603 4863 
L 1178 4863 
L 1178 0 
L 603 0 
L 603 4863 
z
" transform="scale(0.015625)"/>
       <path id="DejaVuSans-28" d="M 1984 4856 
Q 1566 4138 1362 3434 
Q 1159 2731 1159 2009 
Q 1159 1288 1364 580 
Q 1569 -128 1984 -844 
L 1484 -844 
Q 1016 -109 783 600 
Q 550 1309 550 2009 
Q 550 2706 781 3412 
Q 1013 4119 1484 4856 
L 1984 4856 
z
" transform="scale(0.015625)"/>
       <path id="DejaVuSans-29" d="M 513 4856 
L 1013 4856 
Q 1481 4119 1714 3412 
Q 1947 2706 1947 2009 
Q 1947 1309 1714 600 
Q 1481 -109 1013 -844 
L 513 -844 
Q 928 -128 1133 580 
Q 1338 1288 1338 2009 
Q 1338 2731 1133 3434 
Q 928 4138 513 4856 
z
" transform="scale(0.015625)"/>
      </defs>
      <use xlink:href="#DejaVuSans-62"/>
      <use xlink:href="#DejaVuSans-69" x="63.476562"/>
      <use xlink:href="#DejaVuSans-74" x="91.259766"/>
      <use xlink:href="#DejaVuSans-73" x="130.46875"/>
      <use xlink:href="#DejaVuSans-20" x="182.568359"/>
      <use xlink:href="#DejaVuSans-70" x="214.355469"/>
      <use xlink:href="#DejaVuSans-65" x="277.832031"/>
      <use xlink:href="#DejaVuSans-72" x="339.355469"/>
      <use xlink:href="#DejaVuSans-20" x="380.46875"/>
      <use xlink:href="#DejaVuSans-70" x="412.255859"/>
      <use xlink:href="#DejaVuSans-69" x="475.732422"/>
      <use xlink:href="#DejaVuSans-78" x="503.515625"/>
      <use xlink:href="#DejaVuSans-65" x="559.570312"/>
      <use xlink:href="#DejaVuSans-6c" x="621.09375"/>
      <use xlink:href="#DejaVuSans-20" x="648.876953"/>
      <use xlink:href="#DejaVuSans-28" x="680.664062"/>
      <use xlink:href="#DejaVuSans-62" x="719.677734"/>
      <use xlink:href="#DejaVuSans-70" x="783.154297"/>
      <use xlink:href="#DejaVuSans-70" x="846.630859"/>
      <use xlink:href="#DejaVuSans-29" x="910.107422"/>
     </g>
    </g>
   </g>
   <g id="matplotlib.axis_2">
    <g id="ytick_1">
     <g id="line2d_11">
      <path d="M 37.36625 110.813542 
L 174.39375 110.813542 
" clip-path="url(#p78aa567ac2)" style="fill: none; stroke: #b0b0b0; stroke-width: 0.8; stroke-linecap: square"/>
     </g>
     <g id="line2d_12">
      <defs>
       <path id="m29397a6697" d="M 0 0 
L -3.5 0 
" style="stroke: #000000; stroke-width: 0.8"/>
      </defs>
      <g>
       <use xlink:href="#m29397a6697" x="37.36625" y="110.813542" style="stroke: #000000; stroke-width: 0.8"/>
      </g>
     </g>
     <g id="text_7">
      <!-- 22.5 -->
      <g transform="translate(17.006875 113.093073) scale(0.06 -0.06)">
       <use xlink:href="#DejaVuSans-32"/>
       <use xlink:href="#DejaVuSans-32" x="63.623047"/>
       <use xlink:href="#DejaVuSans-2e" x="127.246094"/>
       <use xlink:href="#DejaVuSans-35" x="159.033203"/>
      </g>
     </g>
    </g>
    <g id="ytick_2">
     <g id="line2d_13">
      <path d="M 37.36625 94.926875 
L 174.39375 94.926875 
" clip-path="url(#p78aa567ac2)" style="fill: none; stroke: #b0b0b0; stroke-width: 0.8; stroke-linecap: square"/>
     </g>
     <g id="line2d_14">
      <g>
       <use xlink:href="#m29397a6697" x="37.36625" y="94.926875" style="stroke: #000000; stroke-width: 0.8"/>
      </g>
     </g>
     <g id="text_8">
      <!-- 25.0 -->
      <g transform="translate(17.006875 97.206406) scale(0.06 -0.06)">
       <use xlink:href="#DejaVuSans-32"/>
       <use xlink:href="#DejaVuSans-35" x="63.623047"/>
       <use xlink:href="#DejaVuSans-2e" x="127.246094"/>
       <use xlink:href="#DejaVuSans-30" x="159.033203"/>
      </g>
     </g>
    </g>
    <g id="ytick_3">
     <g id="line2d_15">
      <path d="M 37.36625 79.040208 
L 174.39375 79.040208 
" clip-path="url(#p78aa567ac2)" style="fill: none; stroke: #b0b0b0; stroke-width: 0.8; stroke-linecap: square"/>
     </g>
     <g id="line2d_16">
      <g>
       <use xlink:href="#m29397a6697" x="37.36625" y="79.040208" style="stroke: #000000; stroke-width: 0.8"/>
      </g>
     </g>
     <g id="text_9">
      <!-- 27.5 -->
      <g transform="translate(17.006875 81.31974) scale(0.06 -0.06)">
       <defs>
        <path id="DejaVuSans-37" d="M 525 4666 
L 3525 4666 
L 3525 4397 
L 1831 0 
L 1172 0 
L 2766 4134 
L 525 4134 
L 525 4666 
z
" transform="scale(0.015625)"/>
       </defs>
       <use xlink:href="#DejaVuSans-32"/>
       <use xlink:href="#DejaVuSans-37" x="63.623047"/>
       <use xlink:href="#DejaVuSans-2e" x="127.246094"/>
       <use xlink:href="#DejaVuSans-35" x="159.033203"/>
      </g>
     </g>
    </g>
    <g id="ytick_4">
     <g id="line2d_17">
      <path d="M 37.36625 63.153542 
L 174.39375 63.153542 
" clip-path="url(#p78aa567ac2)" style="fill: none; stroke: #b0b0b0; stroke-width: 0.8; stroke-linecap: square"/>
     </g>
     <g id="line2d_18">
      <g>
       <use xlink:href="#m29397a6697" x="37.36625" y="63.153542" style="stroke: #000000; stroke-width: 0.8"/>
      </g>
     </g>
     <g id="text_10">
      <!-- 30.0 -->
      <g transform="translate(17.006875 65.433073) scale(0.06 -0.06)">
       <defs>
        <path id="DejaVuSans-33" d="M 2597 2516 
Q 3050 2419 3304 2112 
Q 3559 1806 3559 1356 
Q 3559 666 3084 287 
Q 2609 -91 1734 -91 
Q 1441 -91 1130 -33 
Q 819 25 488 141 
L 488 750 
Q 750 597 1062 519 
Q 1375 441 1716 441 
Q 2309 441 2620 675 
Q 2931 909 2931 1356 
Q 2931 1769 2642 2001 
Q 2353 2234 1838 2234 
L 1294 2234 
L 1294 2753 
L 1863 2753 
Q 2328 2753 2575 2939 
Q 2822 3125 2822 3475 
Q 2822 3834 2567 4026 
Q 2313 4219 1838 4219 
Q 1578 4219 1281 4162 
Q 984 4106 628 3988 
L 628 4550 
Q 988 4650 1302 4700 
Q 1616 4750 1894 4750 
Q 2613 4750 3031 4423 
Q 3450 4097 3450 3541 
Q 3450 3153 3228 2886 
Q 3006 2619 2597 2516 
z
" transform="scale(0.015625)"/>
       </defs>
       <use xlink:href="#DejaVuSans-33"/>
       <use xlink:href="#DejaVuSans-30" x="63.623047"/>
       <use xlink:href="#DejaVuSans-2e" x="127.246094"/>
       <use xlink:href="#DejaVuSans-30" x="159.033203"/>
      </g>
     </g>
    </g>
    <g id="ytick_5">
     <g id="line2d_19">
      <path d="M 37.36625 47.266875 
L 174.39375 47.266875 
" clip-path="url(#p78aa567ac2)" style="fill: none; stroke: #b0b0b0; stroke-width: 0.8; stroke-linecap: square"/>
     </g>
     <g id="line2d_20">
      <g>
       <use xlink:href="#m29397a6697" x="37.36625" y="47.266875" style="stroke: #000000; stroke-width: 0.8"/>
      </g>
     </g>
     <g id="text_11">
      <!-- 32.5 -->
      <g transform="translate(17.006875 49.546406) scale(0.06 -0.06)">
       <use xlink:href="#DejaVuSans-33"/>
       <use xlink:href="#DejaVuSans-32" x="63.623047"/>
       <use xlink:href="#DejaVuSans-2e" x="127.246094"/>
       <use xlink:href="#DejaVuSans-35" x="159.033203"/>
      </g>
     </g>
    </g>
    <g id="ytick_6">
     <g id="line2d_21">
      <path d="M 37.36625 31.380208 
L 174.39375 31.380208 
" clip-path="url(#p78aa567ac2)" style="fill: none; stroke: #b0b0b0; stroke-width: 0.8; stroke-linecap: square"/>
     </g>
     <g id="line2d_22">
      <g>
       <use xlink:href="#m29397a6697" x="37.36625" y="31.380208" style="stroke: #000000; stroke-width: 0.8"/>
      </g>
     </g>
     <g id="text_12">
      <!-- 35.0 -->
      <g transform="translate(17.006875 33.65974) scale(0.06 -0.06)">
       <use xlink:href="#DejaVuSans-33"/>
       <use xlink:href="#DejaVuSans-35" x="63.623047"/>
       <use xlink:href="#DejaVuSans-2e" x="127.246094"/>
       <use xlink:href="#DejaVuSans-30" x="159.033203"/>
      </g>
     </g>
    </g>
    <g id="text_13">
     <!-- PSNR (dB) -->
     <g transform="translate(11.759062 81.630406) rotate(-90) scale(0.06 -0.06)">
      <defs>
       <path id="DejaVuSans-50" d="M 1259 4147 
L 1259 2394 
L 2053 2394 
Q 2494 2394 2734 2622 
Q 2975 2850 2975 3272 
Q 2975 3691 2734 3919 
Q 2494 4147 2053 4147 
L 1259 4147 
z
M 628 4666 
L 2053 4666 
Q 2838 4666 3239 4311 
Q 3641 3956 3641 3272 
Q 3641 2581 3239 2228 
Q 2838 1875 2053 1875 
L 1259 1875 
L 1259 0 
L 628 0 
L 628 4666 
z
" transform="scale(0.015625)"/>
       <path id="DejaVuSans-53" d="M 3425 4513 
L 3425 3897 
Q 3066 4069 2747 4153 
Q 2428 4238 2131 4238 
Q 1616 4238 1336 4038 
Q 1056 3838 1056 3469 
Q 1056 3159 1242 3001 
Q 1428 2844 1947 2747 
L 2328 2669 
Q 3034 2534 3370 2195 
Q 3706 1856 3706 1288 
Q 3706 609 3251 259 
Q 2797 -91 1919 -91 
Q 1588 -91 1214 -16 
Q 841 59 441 206 
L 441 856 
Q 825 641 1194 531 
Q 1563 422 1919 422 
Q 2459 422 2753 634 
Q 3047 847 3047 1241 
Q 3047 1584 2836 1778 
Q 2625 1972 2144 2069 
L 1759 2144 
Q 1053 2284 737 2584 
Q 422 2884 422 3419 
Q 422 4038 858 4394 
Q 1294 4750 2059 4750 
Q 2388 4750 2728 4690 
Q 3069 4631 3425 4513 
z
" transform="scale(0.015625)"/>
       <path id="DejaVuSans-4e" d="M 628 4666 
L 1478 4666 
L 3547 763 
L 3547 4666 
L 4159 4666 
L 4159 0 
L 3309 0 
L 1241 3903 
L 1241 0 
L 628 0 
L 628 4666 
z
" transform="scale(0.015625)"/>
       <path id="DejaVuSans-52" d="M 2841 2188 
Q 3044 2119 3236 1894 
Q 3428 1669 3622 1275 
L 4263 0 
L 3584 0 
L 2988 1197 
Q 2756 1666 2539 1819 
Q 2322 1972 1947 1972 
L 1259 1972 
L 1259 0 
L 628 0 
L 628 4666 
L 2053 4666 
Q 2853 4666 3247 4331 
Q 3641 3997 3641 3322 
Q 3641 2881 3436 2590 
Q 3231 2300 2841 2188 
z
M 1259 4147 
L 1259 2491 
L 2053 2491 
Q 2509 2491 2742 2702 
Q 2975 2913 2975 3322 
Q 2975 3731 2742 3939 
Q 2509 4147 2053 4147 
L 1259 4147 
z
" transform="scale(0.015625)"/>
       <path id="DejaVuSans-64" d="M 2906 2969 
L 2906 4863 
L 3481 4863 
L 3481 0 
L 2906 0 
L 2906 525 
Q 2725 213 2448 61 
Q 2172 -91 1784 -91 
Q 1150 -91 751 415 
Q 353 922 353 1747 
Q 353 2572 751 3078 
Q 1150 3584 1784 3584 
Q 2172 3584 2448 3432 
Q 2725 3281 2906 2969 
z
M 947 1747 
Q 947 1113 1208 752 
Q 1469 391 1925 391 
Q 2381 391 2643 752 
Q 2906 1113 2906 1747 
Q 2906 2381 2643 2742 
Q 2381 3103 1925 3103 
Q 1469 3103 1208 2742 
Q 947 2381 947 1747 
z
" transform="scale(0.015625)"/>
       <path id="DejaVuSans-42" d="M 1259 2228 
L 1259 519 
L 2272 519 
Q 2781 519 3026 730 
Q 3272 941 3272 1375 
Q 3272 1813 3026 2020 
Q 2781 2228 2272 2228 
L 1259 2228 
z
M 1259 4147 
L 1259 2741 
L 2194 2741 
Q 2656 2741 2882 2914 
Q 3109 3088 3109 3444 
Q 3109 3797 2882 3972 
Q 2656 4147 2194 4147 
L 1259 4147 
z
M 628 4666 
L 2241 4666 
Q 2963 4666 3353 4366 
Q 3744 4066 3744 3513 
Q 3744 3084 3544 2831 
Q 3344 2578 2956 2516 
Q 3422 2416 3680 2098 
Q 3938 1781 3938 1306 
Q 3938 681 3513 340 
Q 3088 0 2303 0 
L 628 0 
L 628 4666 
z
" transform="scale(0.015625)"/>
      </defs>
      <use xlink:href="#DejaVuSans-50"/>
      <use xlink:href="#DejaVuSans-53" x="60.302734"/>
      <use xlink:href="#DejaVuSans-4e" x="123.779297"/>
      <use xlink:href="#DejaVuSans-52" x="198.583984"/>
      <use xlink:href="#DejaVuSans-20" x="268.066406"/>
      <use xlink:href="#DejaVuSans-28" x="299.853516"/>
      <use xlink:href="#DejaVuSans-64" x="338.867188"/>
      <use xlink:href="#DejaVuSans-42" x="402.34375"/>
      <use xlink:href="#DejaVuSans-29" x="470.947266"/>
     </g>
    </g>
   </g>
   <g id="line2d_23">
    <path d="M 55.047027 73.856415 
L 57.747622 70.593063 
L 75.356845 57.158531 
L 102.245306 42.702329 
L 147.431585 27.439462 
L 214.307542 12.32416 
L 297.738315 -1 
" clip-path="url(#p78aa567ac2)" style="fill: none; stroke: #ff4500; stroke-width: 0.75; stroke-linecap: square"/>
    <defs>
     <path id="madceb67ae4" d="M 0 1.5 
C 0.397805 1.5 0.77937 1.341951 1.06066 1.06066 
C 1.341951 0.77937 1.5 0.397805 1.5 0 
C 1.5 -0.397805 1.341951 -0.77937 1.06066 -1.06066 
C 0.77937 -1.341951 0.397805 -1.5 0 -1.5 
C -0.397805 -1.5 -0.77937 -1.341951 -1.06066 -1.06066 
C -1.341951 -0.77937 -1.5 -0.397805 -1.5 0 
C -1.5 0.397805 -1.341951 0.77937 -1.06066 1.06066 
C -0.77937 1.341951 -0.397805 1.5 0 1.5 
z
" style="stroke: #ff4500"/>
    </defs>
    <g clip-path="url(#p78aa567ac2)">
     <use xlink:href="#madceb67ae4" x="55.047027" y="73.856415" style="fill: #ff4500; stroke: #ff4500"/>
     <use xlink:href="#madceb67ae4" x="57.747622" y="70.593063" style="fill: #ff4500; stroke: #ff4500"/>
     <use xlink:href="#madceb67ae4" x="75.356845" y="57.158531" style="fill: #ff4500; stroke: #ff4500"/>
     <use xlink:href="#madceb67ae4" x="102.245306" y="42.702329" style="fill: #ff4500; stroke: #ff4500"/>
     <use xlink:href="#madceb67ae4" x="147.431585" y="27.439462" style="fill: #ff4500; stroke: #ff4500"/>
     <use xlink:href="#madceb67ae4" x="214.307542" y="12.32416" style="fill: #ff4500; stroke: #ff4500"/>
     <use xlink:href="#madceb67ae4" x="297.738315" y="-1" style="fill: #ff4500; stroke: #ff4500"/>
    </g>
   </g>
   <g id="line2d_24">
    <path d="M 41.926809 103.3037 
L 46.441405 95.39268 
L 55.584347 87.666402 
L 64.651959 82.014292 
L 74.130107 77.145849 
" clip-path="url(#p78aa567ac2)" style="fill: none; stroke: #ff00ff; stroke-width: 0.75; stroke-linecap: square"/>
    <defs>
     <path id="m54182f3035" d="M 0 1.5 
C 0.397805 1.5 0.77937 1.341951 1.06066 1.06066 
C 1.341951 0.77937 1.5 0.397805 1.5 0 
C 1.5 -0.397805 1.341951 -0.77937 1.06066 -1.06066 
C 0.77937 -1.341951 0.397805 -1.5 0 -1.5 
C -0.397805 -1.5 -0.77937 -1.341951 -1.06066 -1.06066 
C -1.341951 -0.77937 -1.5 -0.397805 -1.5 0 
C -1.5 0.397805 -1.341951 0.77937 -1.06066 1.06066 
C -0.77937 1.341951 -0.397805 1.5 0 1.5 
z
" style="stroke: #ff00ff"/>
    </defs>
    <g clip-path="url(#p78aa567ac2)">
     <use xlink:href="#m54182f3035" x="41.926809" y="103.3037" style="fill: #ff00ff; stroke: #ff00ff"/>
     <use xlink:href="#m54182f3035" x="46.441405" y="95.39268" style="fill: #ff00ff; stroke: #ff00ff"/>
     <use xlink:href="#m54182f3035" x="55.584347" y="87.666402" style="fill: #ff00ff; stroke: #ff00ff"/>
     <use xlink:href="#m54182f3035" x="64.651959" y="82.014292" style="fill: #ff00ff; stroke: #ff00ff"/>
     <use xlink:href="#m54182f3035" x="74.130107" y="77.145849" style="fill: #ff00ff; stroke: #ff00ff"/>
    </g>
   </g>
   <g id="line2d_25">
    <path d="M 43.063765 91.367967 
L 47.959836 82.095494 
L 54.421797 74.082564 
L 91.11274 49.562573 
" clip-path="url(#p78aa567ac2)" style="fill: none; stroke: #0000ff; stroke-width: 0.75; stroke-linecap: square"/>
    <defs>
     <path id="m8831cec4e3" d="M 0 1.5 
C 0.397805 1.5 0.77937 1.341951 1.06066 1.06066 
C 1.341951 0.77937 1.5 0.397805 1.5 0 
C 1.5 -0.397805 1.341951 -0.77937 1.06066 -1.06066 
C 0.77937 -1.341951 0.397805 -1.5 0 -1.5 
C -0.397805 -1.5 -0.77937 -1.341951 -1.06066 -1.06066 
C -1.341951 -0.77937 -1.5 -0.397805 -1.5 0 
C -1.5 0.397805 -1.341951 0.77937 -1.06066 1.06066 
C -0.77937 1.341951 -0.397805 1.5 0 1.5 
z
" style="stroke: #0000ff"/>
    </defs>
    <g clip-path="url(#p78aa567ac2)">
     <use xlink:href="#m8831cec4e3" x="43.063765" y="91.367967" style="fill: #0000ff; stroke: #0000ff"/>
     <use xlink:href="#m8831cec4e3" x="47.959836" y="82.095494" style="fill: #0000ff; stroke: #0000ff"/>
     <use xlink:href="#m8831cec4e3" x="54.421797" y="74.082564" style="fill: #0000ff; stroke: #0000ff"/>
     <use xlink:href="#m8831cec4e3" x="91.11274" y="49.562573" style="fill: #0000ff; stroke: #0000ff"/>
    </g>
   </g>
   <g id="line2d_26">
    <path d="M 44.189991 90.87935 
L 50.241618 81.283181 
L 57.881496 73.232255 
L 102.200236 48.744497 
" clip-path="url(#p78aa567ac2)" style="fill: none; stroke: #dda0dd; stroke-width: 0.75; stroke-linecap: square"/>
    <defs>
     <path id="m7b2426eb36" d="M 0 1.5 
C 0.397805 1.5 0.77937 1.341951 1.06066 1.06066 
C 1.341951 0.77937 1.5 0.397805 1.5 0 
C 1.5 -0.397805 1.341951 -0.77937 1.06066 -1.06066 
C 0.77937 -1.341951 0.397805 -1.5 0 -1.5 
C -0.397805 -1.5 -0.77937 -1.341951 -1.06066 -1.06066 
C -1.341951 -0.77937 -1.5 -0.397805 -1.5 0 
C -1.5 0.397805 -1.341951 0.77937 -1.06066 1.06066 
C -0.77937 1.341951 -0.397805 1.5 0 1.5 
z
" style="stroke: #dda0dd"/>
    </defs>
    <g clip-path="url(#p78aa567ac2)">
     <use xlink:href="#m7b2426eb36" x="44.189991" y="90.87935" style="fill: #dda0dd; stroke: #dda0dd"/>
     <use xlink:href="#m7b2426eb36" x="50.241618" y="81.283181" style="fill: #dda0dd; stroke: #dda0dd"/>
     <use xlink:href="#m7b2426eb36" x="57.881496" y="73.232255" style="fill: #dda0dd; stroke: #dda0dd"/>
     <use xlink:href="#m7b2426eb36" x="102.200236" y="48.744497" style="fill: #dda0dd; stroke: #dda0dd"/>
    </g>
   </g>
   <g id="line2d_27">
    <path d="M 42.409547 106.333502 
L 48.355855 97.207671 
L 58.427377 85.953291 
L 79.2213 73.270171 
L 120.199374 59.061136 
" clip-path="url(#p78aa567ac2)" style="fill: none; stroke: #ee82ee; stroke-width: 0.75; stroke-linecap: square"/>
    <defs>
     <path id="mdf607371e9" d="M 0 1.5 
C 0.397805 1.5 0.77937 1.341951 1.06066 1.06066 
C 1.341951 0.77937 1.5 0.397805 1.5 0 
C 1.5 -0.397805 1.341951 -0.77937 1.06066 -1.06066 
C 0.77937 -1.341951 0.397805 -1.5 0 -1.5 
C -0.397805 -1.5 -0.77937 -1.341951 -1.06066 -1.06066 
C -1.341951 -0.77937 -1.5 -0.397805 -1.5 0 
C -1.5 0.397805 -1.341951 0.77937 -1.06066 1.06066 
C -0.77937 1.341951 -0.397805 1.5 0 1.5 
z
" style="stroke: #ee82ee"/>
    </defs>
    <g clip-path="url(#p78aa567ac2)">
     <use xlink:href="#mdf607371e9" x="42.409547" y="106.333502" style="fill: #ee82ee; stroke: #ee82ee"/>
     <use xlink:href="#mdf607371e9" x="48.355855" y="97.207671" style="fill: #ee82ee; stroke: #ee82ee"/>
     <use xlink:href="#mdf607371e9" x="58.427377" y="85.953291" style="fill: #ee82ee; stroke: #ee82ee"/>
     <use xlink:href="#mdf607371e9" x="79.2213" y="73.270171" style="fill: #ee82ee; stroke: #ee82ee"/>
     <use xlink:href="#mdf607371e9" x="120.199374" y="59.061136" style="fill: #ee82ee; stroke: #ee82ee"/>
    </g>
   </g>
   <g id="patch_3">
    <path d="M 37.36625 113.990875 
L 37.36625 18.670875 
" style="fill: none; stroke: #000000; stroke-width: 0.8; stroke-linejoin: miter; stroke-linecap: square"/>
   </g>
   <g id="patch_4">
    <path d="M 174.39375 113.990875 
L 174.39375 18.670875 
" style="fill: none; stroke: #000000; stroke-width: 0.8; stroke-linejoin: miter; stroke-linecap: square"/>
   </g>
   <g id="patch_5">
    <path d="M 37.36625 113.990875 
L 174.39375 113.990875 
" style="fill: none; stroke: #000000; stroke-width: 0.8; stroke-linejoin: miter; stroke-linecap: square"/>
   </g>
   <g id="patch_6">
    <path d="M 37.36625 18.670875 
L 174.39375 18.670875 
" style="fill: none; stroke: #000000; stroke-width: 0.8; stroke-linejoin: miter; stroke-linecap: square"/>
   </g>
   <g id="text_14">
    <!-- Kodak -->
    <g transform="translate(94.92025 12.670875) scale(0.072 -0.072)">
     <defs>
      <path id="DejaVuSans-4b" d="M 628 4666 
L 1259 4666 
L 1259 2694 
L 3353 4666 
L 4166 4666 
L 1850 2491 
L 4331 0 
L 3500 0 
L 1259 2247 
L 1259 0 
L 628 0 
L 628 4666 
z
" transform="scale(0.015625)"/>
      <path id="DejaVuSans-6f" d="M 1959 3097 
Q 1497 3097 1228 2736 
Q 959 2375 959 1747 
Q 959 1119 1226 758 
Q 1494 397 1959 397 
Q 2419 397 2687 759 
Q 2956 1122 2956 1747 
Q 2956 2369 2687 2733 
Q 2419 3097 1959 3097 
z
M 1959 3584 
Q 2709 3584 3137 3096 
Q 3566 2609 3566 1747 
Q 3566 888 3137 398 
Q 2709 -91 1959 -91 
Q 1206 -91 779 398 
Q 353 888 353 1747 
Q 353 2609 779 3096 
Q 1206 3584 1959 3584 
z
" transform="scale(0.015625)"/>
      <path id="DejaVuSans-61" d="M 2194 1759 
Q 1497 1759 1228 1600 
Q 959 1441 959 1056 
Q 959 750 1161 570 
Q 1363 391 1709 391 
Q 2188 391 2477 730 
Q 2766 1069 2766 1631 
L 2766 1759 
L 2194 1759 
z
M 3341 1997 
L 3341 0 
L 2766 0 
L 2766 531 
Q 2569 213 2275 61 
Q 1981 -91 1556 -91 
Q 1019 -91 701 211 
Q 384 513 384 1019 
Q 384 1609 779 1909 
Q 1175 2209 1959 2209 
L 2766 2209 
L 2766 2266 
Q 2766 2663 2505 2880 
Q 2244 3097 1772 3097 
Q 1472 3097 1187 3025 
Q 903 2953 641 2809 
L 641 3341 
Q 956 3463 1253 3523 
Q 1550 3584 1831 3584 
Q 2591 3584 2966 3190 
Q 3341 2797 3341 1997 
z
" transform="scale(0.015625)"/>
      <path id="DejaVuSans-6b" d="M 581 4863 
L 1159 4863 
L 1159 1991 
L 2875 3500 
L 3609 3500 
L 1753 1863 
L 3688 0 
L 2938 0 
L 1159 1709 
L 1159 0 
L 581 0 
L 581 4863 
z
" transform="scale(0.015625)"/>
     </defs>
     <use xlink:href="#DejaVuSans-4b"/>
     <use xlink:href="#DejaVuSans-6f" x="60.576172"/>
     <use xlink:href="#DejaVuSans-64" x="121.757812"/>
     <use xlink:href="#DejaVuSans-61" x="185.234375"/>
     <use xlink:href="#DejaVuSans-6b" x="246.513672"/>
    </g>
   </g>
   <g id="legend_1">
    <g id="patch_7">
     <path d="M 86.264766 111.740875 
L 171.24375 111.740875 
Q 172.14375 111.740875 172.14375 110.840875 
L 172.14375 78.265094 
Q 172.14375 77.365094 171.24375 77.365094 
L 86.264766 77.365094 
Q 85.364766 77.365094 85.364766 78.265094 
L 85.364766 110.840875 
Q 85.364766 111.740875 86.264766 111.740875 
z
" style="fill: #ffffff; opacity: 0.8; stroke: #cccccc; stroke-linejoin: miter"/>
    </g>
    <g id="line2d_28">
     <path d="M 87.164766 81.009391 
L 91.664766 81.009391 
L 96.164766 81.009391 
" style="fill: none; stroke: #ff4500; stroke-width: 0.75; stroke-linecap: square"/>
     <g>
      <use xlink:href="#madceb67ae4" x="91.664766" y="81.009391" style="fill: #ff4500; stroke: #ff4500"/>
     </g>
    </g>
    <g id="text_15">
     <!-- NIF (Ours) -->
     <g transform="translate(99.764766 82.584391) scale(0.045 -0.045)">
      <defs>
       <path id="DejaVuSans-49" d="M 628 4666 
L 1259 4666 
L 1259 0 
L 628 0 
L 628 4666 
z
" transform="scale(0.015625)"/>
       <path id="DejaVuSans-46" d="M 628 4666 
L 3309 4666 
L 3309 4134 
L 1259 4134 
L 1259 2759 
L 3109 2759 
L 3109 2228 
L 1259 2228 
L 1259 0 
L 628 0 
L 628 4666 
z
" transform="scale(0.015625)"/>
       <path id="DejaVuSans-4f" d="M 2522 4238 
Q 1834 4238 1429 3725 
Q 1025 3213 1025 2328 
Q 1025 1447 1429 934 
Q 1834 422 2522 422 
Q 3209 422 3611 934 
Q 4013 1447 4013 2328 
Q 4013 3213 3611 3725 
Q 3209 4238 2522 4238 
z
M 2522 4750 
Q 3503 4750 4090 4092 
Q 4678 3434 4678 2328 
Q 4678 1225 4090 567 
Q 3503 -91 2522 -91 
Q 1538 -91 948 565 
Q 359 1222 359 2328 
Q 359 3434 948 4092 
Q 1538 4750 2522 4750 
z
" transform="scale(0.015625)"/>
       <path id="DejaVuSans-75" d="M 544 1381 
L 544 3500 
L 1119 3500 
L 1119 1403 
Q 1119 906 1312 657 
Q 1506 409 1894 409 
Q 2359 409 2629 706 
Q 2900 1003 2900 1516 
L 2900 3500 
L 3475 3500 
L 3475 0 
L 2900 0 
L 2900 538 
Q 2691 219 2414 64 
Q 2138 -91 1772 -91 
Q 1169 -91 856 284 
Q 544 659 544 1381 
z
M 1991 3584 
L 1991 3584 
z
" transform="scale(0.015625)"/>
      </defs>
      <use xlink:href="#DejaVuSans-4e"/>
      <use xlink:href="#DejaVuSans-49" x="74.804688"/>
      <use xlink:href="#DejaVuSans-46" x="104.296875"/>
      <use xlink:href="#DejaVuSans-20" x="161.816406"/>
      <use xlink:href="#DejaVuSans-28" x="193.603516"/>
      <use xlink:href="#DejaVuSans-4f" x="232.617188"/>
      <use xlink:href="#DejaVuSans-75" x="311.328125"/>
      <use xlink:href="#DejaVuSans-72" x="374.707031"/>
      <use xlink:href="#DejaVuSans-73" x="415.820312"/>
      <use xlink:href="#DejaVuSans-29" x="467.919922"/>
     </g>
    </g>
    <g id="line2d_29">
     <path d="M 87.164766 87.614547 
L 91.664766 87.614547 
L 96.164766 87.614547 
" style="fill: none; stroke: #ff00ff; stroke-width: 0.75; stroke-linecap: square"/>
     <g>
      <use xlink:href="#m54182f3035" x="91.664766" y="87.614547" style="fill: #ff00ff; stroke: #ff00ff"/>
     </g>
    </g>
    <g id="text_16">
     <!-- COIN++ -->
     <g transform="translate(99.764766 89.189547) scale(0.045 -0.045)">
      <defs>
       <path id="DejaVuSans-43" d="M 4122 4306 
L 4122 3641 
Q 3803 3938 3442 4084 
Q 3081 4231 2675 4231 
Q 1875 4231 1450 3742 
Q 1025 3253 1025 2328 
Q 1025 1406 1450 917 
Q 1875 428 2675 428 
Q 3081 428 3442 575 
Q 3803 722 4122 1019 
L 4122 359 
Q 3791 134 3420 21 
Q 3050 -91 2638 -91 
Q 1578 -91 968 557 
Q 359 1206 359 2328 
Q 359 3453 968 4101 
Q 1578 4750 2638 4750 
Q 3056 4750 3426 4639 
Q 3797 4528 4122 4306 
z
" transform="scale(0.015625)"/>
       <path id="DejaVuSans-2b" d="M 2944 4013 
L 2944 2272 
L 4684 2272 
L 4684 1741 
L 2944 1741 
L 2944 0 
L 2419 0 
L 2419 1741 
L 678 1741 
L 678 2272 
L 2419 2272 
L 2419 4013 
L 2944 4013 
z
" transform="scale(0.015625)"/>
      </defs>
      <use xlink:href="#DejaVuSans-43"/>
      <use xlink:href="#DejaVuSans-4f" x="69.824219"/>
      <use xlink:href="#DejaVuSans-49" x="148.535156"/>
      <use xlink:href="#DejaVuSans-4e" x="178.027344"/>
      <use xlink:href="#DejaVuSans-2b" x="252.832031"/>
      <use xlink:href="#DejaVuSans-2b" x="336.621094"/>
     </g>
    </g>
    <g id="line2d_30">
     <path d="M 87.164766 94.219703 
L 91.664766 94.219703 
L 96.164766 94.219703 
" style="fill: none; stroke: #0000ff; stroke-width: 0.75; stroke-linecap: square"/>
     <g>
      <use xlink:href="#m8831cec4e3" x="91.664766" y="94.219703" style="fill: #0000ff; stroke: #0000ff"/>
     </g>
    </g>
    <g id="text_17">
     <!-- Strumpler meta-learned [2021] -->
     <g transform="translate(99.764766 95.794703) scale(0.045 -0.045)">
      <defs>
       <path id="DejaVuSans-6d" d="M 3328 2828 
Q 3544 3216 3844 3400 
Q 4144 3584 4550 3584 
Q 5097 3584 5394 3201 
Q 5691 2819 5691 2113 
L 5691 0 
L 5113 0 
L 5113 2094 
Q 5113 2597 4934 2840 
Q 4756 3084 4391 3084 
Q 3944 3084 3684 2787 
Q 3425 2491 3425 1978 
L 3425 0 
L 2847 0 
L 2847 2094 
Q 2847 2600 2669 2842 
Q 2491 3084 2119 3084 
Q 1678 3084 1418 2786 
Q 1159 2488 1159 1978 
L 1159 0 
L 581 0 
L 581 3500 
L 1159 3500 
L 1159 2956 
Q 1356 3278 1631 3431 
Q 1906 3584 2284 3584 
Q 2666 3584 2933 3390 
Q 3200 3197 3328 2828 
z
" transform="scale(0.015625)"/>
       <path id="DejaVuSans-2d" d="M 313 2009 
L 1997 2009 
L 1997 1497 
L 313 1497 
L 313 2009 
z
" transform="scale(0.015625)"/>
       <path id="DejaVuSans-6e" d="M 3513 2113 
L 3513 0 
L 2938 0 
L 2938 2094 
Q 2938 2591 2744 2837 
Q 2550 3084 2163 3084 
Q 1697 3084 1428 2787 
Q 1159 2491 1159 1978 
L 1159 0 
L 581 0 
L 581 3500 
L 1159 3500 
L 1159 2956 
Q 1366 3272 1645 3428 
Q 1925 3584 2291 3584 
Q 2894 3584 3203 3211 
Q 3513 2838 3513 2113 
z
" transform="scale(0.015625)"/>
       <path id="DejaVuSans-5b" d="M 550 4863 
L 1875 4863 
L 1875 4416 
L 1125 4416 
L 1125 -397 
L 1875 -397 
L 1875 -844 
L 550 -844 
L 550 4863 
z
" transform="scale(0.015625)"/>
       <path id="DejaVuSans-5d" d="M 1947 4863 
L 1947 -844 
L 622 -844 
L 622 -397 
L 1369 -397 
L 1369 4416 
L 622 4416 
L 622 4863 
L 1947 4863 
z
" transform="scale(0.015625)"/>
      </defs>
      <use xlink:href="#DejaVuSans-53"/>
      <use xlink:href="#DejaVuSans-74" x="63.476562"/>
      <use xlink:href="#DejaVuSans-72" x="102.685547"/>
      <use xlink:href="#DejaVuSans-75" x="143.798828"/>
      <use xlink:href="#DejaVuSans-6d" x="207.177734"/>
      <use xlink:href="#DejaVuSans-70" x="304.589844"/>
      <use xlink:href="#DejaVuSans-6c" x="368.066406"/>
      <use xlink:href="#DejaVuSans-65" x="395.849609"/>
      <use xlink:href="#DejaVuSans-72" x="457.373047"/>
      <use xlink:href="#DejaVuSans-20" x="498.486328"/>
      <use xlink:href="#DejaVuSans-6d" x="530.273438"/>
      <use xlink:href="#DejaVuSans-65" x="627.685547"/>
      <use xlink:href="#DejaVuSans-74" x="689.208984"/>
      <use xlink:href="#DejaVuSans-61" x="728.417969"/>
      <use xlink:href="#DejaVuSans-2d" x="789.697266"/>
      <use xlink:href="#DejaVuSans-6c" x="825.78125"/>
      <use xlink:href="#DejaVuSans-65" x="853.564453"/>
      <use xlink:href="#DejaVuSans-61" x="915.087891"/>
      <use xlink:href="#DejaVuSans-72" x="976.367188"/>
      <use xlink:href="#DejaVuSans-6e" x="1015.730469"/>
      <use xlink:href="#DejaVuSans-65" x="1079.109375"/>
      <use xlink:href="#DejaVuSans-64" x="1140.632812"/>
      <use xlink:href="#DejaVuSans-20" x="1204.109375"/>
      <use xlink:href="#DejaVuSans-5b" x="1235.896484"/>
      <use xlink:href="#DejaVuSans-32" x="1274.910156"/>
      <use xlink:href="#DejaVuSans-30" x="1338.533203"/>
      <use xlink:href="#DejaVuSans-32" x="1402.15625"/>
      <use xlink:href="#DejaVuSans-31" x="1465.779297"/>
      <use xlink:href="#DejaVuSans-5d" x="1529.402344"/>
     </g>
    </g>
    <g id="line2d_31">
     <path d="M 87.164766 100.824859 
L 91.664766 100.824859 
L 96.164766 100.824859 
" style="fill: none; stroke: #dda0dd; stroke-width: 0.75; stroke-linecap: square"/>
     <g>
      <use xlink:href="#m7b2426eb36" x="91.664766" y="100.824859" style="fill: #dda0dd; stroke: #dda0dd"/>
     </g>
    </g>
    <g id="text_18">
     <!-- Strumpler basic [2021] -->
     <g transform="translate(99.764766 102.399859) scale(0.045 -0.045)">
      <defs>
       <path id="DejaVuSans-63" d="M 3122 3366 
L 3122 2828 
Q 2878 2963 2633 3030 
Q 2388 3097 2138 3097 
Q 1578 3097 1268 2742 
Q 959 2388 959 1747 
Q 959 1106 1268 751 
Q 1578 397 2138 397 
Q 2388 397 2633 464 
Q 2878 531 3122 666 
L 3122 134 
Q 2881 22 2623 -34 
Q 2366 -91 2075 -91 
Q 1284 -91 818 406 
Q 353 903 353 1747 
Q 353 2603 823 3093 
Q 1294 3584 2113 3584 
Q 2378 3584 2631 3529 
Q 2884 3475 3122 3366 
z
" transform="scale(0.015625)"/>
      </defs>
      <use xlink:href="#DejaVuSans-53"/>
      <use xlink:href="#DejaVuSans-74" x="63.476562"/>
      <use xlink:href="#DejaVuSans-72" x="102.685547"/>
      <use xlink:href="#DejaVuSans-75" x="143.798828"/>
      <use xlink:href="#DejaVuSans-6d" x="207.177734"/>
      <use xlink:href="#DejaVuSans-70" x="304.589844"/>
      <use xlink:href="#DejaVuSans-6c" x="368.066406"/>
      <use xlink:href="#DejaVuSans-65" x="395.849609"/>
      <use xlink:href="#DejaVuSans-72" x="457.373047"/>
      <use xlink:href="#DejaVuSans-20" x="498.486328"/>
      <use xlink:href="#DejaVuSans-62" x="530.273438"/>
      <use xlink:href="#DejaVuSans-61" x="593.75"/>
      <use xlink:href="#DejaVuSans-73" x="655.029297"/>
      <use xlink:href="#DejaVuSans-69" x="707.128906"/>
      <use xlink:href="#DejaVuSans-63" x="734.912109"/>
      <use xlink:href="#DejaVuSans-20" x="789.892578"/>
      <use xlink:href="#DejaVuSans-5b" x="821.679688"/>
      <use xlink:href="#DejaVuSans-32" x="860.693359"/>
      <use xlink:href="#DejaVuSans-30" x="924.316406"/>
      <use xlink:href="#DejaVuSans-32" x="987.939453"/>
      <use xlink:href="#DejaVuSans-31" x="1051.5625"/>
      <use xlink:href="#DejaVuSans-5d" x="1115.185547"/>
     </g>
    </g>
    <g id="line2d_32">
     <path d="M 87.164766 107.430016 
L 91.664766 107.430016 
L 96.164766 107.430016 
" style="fill: none; stroke: #ee82ee; stroke-width: 0.75; stroke-linecap: square"/>
     <g>
      <use xlink:href="#mdf607371e9" x="91.664766" y="107.430016" style="fill: #ee82ee; stroke: #ee82ee"/>
     </g>
    </g>
    <g id="text_19">
     <!-- COIN -->
     <g transform="translate(99.764766 109.005016) scale(0.045 -0.045)">
      <use xlink:href="#DejaVuSans-43"/>
      <use xlink:href="#DejaVuSans-4f" x="69.824219"/>
      <use xlink:href="#DejaVuSans-49" x="148.535156"/>
      <use xlink:href="#DejaVuSans-4e" x="178.027344"/>
     </g>
    </g>
   </g>
  </g>
  <g id="axes_2">
   <g id="patch_8">
    <path d="M 216.48875 113.990875 
L 353.51625 113.990875 
L 353.51625 18.670875 
L 216.48875 18.670875 
L 216.48875 113.990875 
z
" style="fill: none"/>
   </g>
   <g id="matplotlib.axis_3">
    <g id="xtick_6">
     <g id="line2d_33">
      <path d="M 222.309571 113.990875 
L 222.309571 18.670875 
" clip-path="url(#p9cc705d6f3)" style="fill: none; stroke: #b0b0b0; stroke-width: 0.8; stroke-linecap: square"/>
     </g>
     <g id="line2d_34">
      <g>
       <use xlink:href="#meb95680b99" x="222.309571" y="113.990875" style="stroke: #000000; stroke-width: 0.8"/>
      </g>
     </g>
     <g id="text_20">
      <!-- 0.5 -->
      <g transform="translate(217.538634 125.549937) scale(0.06 -0.06)">
       <use xlink:href="#DejaVuSans-30"/>
       <use xlink:href="#DejaVuSans-2e" x="63.623047"/>
       <use xlink:href="#DejaVuSans-35" x="95.410156"/>
      </g>
     </g>
    </g>
    <g id="xtick_7">
     <g id="line2d_35">
      <path d="M 247.585091 113.990875 
L 247.585091 18.670875 
" clip-path="url(#p9cc705d6f3)" style="fill: none; stroke: #b0b0b0; stroke-width: 0.8; stroke-linecap: square"/>
     </g>
     <g id="line2d_36">
      <g>
       <use xlink:href="#meb95680b99" x="247.585091" y="113.990875" style="stroke: #000000; stroke-width: 0.8"/>
      </g>
     </g>
     <g id="text_21">
      <!-- 1.0 -->
      <g transform="translate(242.814153 125.549937) scale(0.06 -0.06)">
       <use xlink:href="#DejaVuSans-31"/>
       <use xlink:href="#DejaVuSans-2e" x="63.623047"/>
       <use xlink:href="#DejaVuSans-30" x="95.410156"/>
      </g>
     </g>
    </g>
    <g id="xtick_8">
     <g id="line2d_37">
      <path d="M 272.86061 113.990875 
L 272.86061 18.670875 
" clip-path="url(#p9cc705d6f3)" style="fill: none; stroke: #b0b0b0; stroke-width: 0.8; stroke-linecap: square"/>
     </g>
     <g id="line2d_38">
      <g>
       <use xlink:href="#meb95680b99" x="272.86061" y="113.990875" style="stroke: #000000; stroke-width: 0.8"/>
      </g>
     </g>
     <g id="text_22">
      <!-- 1.5 -->
      <g transform="translate(268.089673 125.549937) scale(0.06 -0.06)">
       <use xlink:href="#DejaVuSans-31"/>
       <use xlink:href="#DejaVuSans-2e" x="63.623047"/>
       <use xlink:href="#DejaVuSans-35" x="95.410156"/>
      </g>
     </g>
    </g>
    <g id="xtick_9">
     <g id="line2d_39">
      <path d="M 298.13613 113.990875 
L 298.13613 18.670875 
" clip-path="url(#p9cc705d6f3)" style="fill: none; stroke: #b0b0b0; stroke-width: 0.8; stroke-linecap: square"/>
     </g>
     <g id="line2d_40">
      <g>
       <use xlink:href="#meb95680b99" x="298.13613" y="113.990875" style="stroke: #000000; stroke-width: 0.8"/>
      </g>
     </g>
     <g id="text_23">
      <!-- 2.0 -->
      <g transform="translate(293.365193 125.549937) scale(0.06 -0.06)">
       <use xlink:href="#DejaVuSans-32"/>
       <use xlink:href="#DejaVuSans-2e" x="63.623047"/>
       <use xlink:href="#DejaVuSans-30" x="95.410156"/>
      </g>
     </g>
    </g>
    <g id="xtick_10">
     <g id="line2d_41">
      <path d="M 323.41165 113.990875 
L 323.41165 18.670875 
" clip-path="url(#p9cc705d6f3)" style="fill: none; stroke: #b0b0b0; stroke-width: 0.8; stroke-linecap: square"/>
     </g>
     <g id="line2d_42">
      <g>
       <use xlink:href="#meb95680b99" x="323.41165" y="113.990875" style="stroke: #000000; stroke-width: 0.8"/>
      </g>
     </g>
     <g id="text_24">
      <!-- 2.5 -->
      <g transform="translate(318.640712 125.549937) scale(0.06 -0.06)">
       <use xlink:href="#DejaVuSans-32"/>
       <use xlink:href="#DejaVuSans-2e" x="63.623047"/>
       <use xlink:href="#DejaVuSans-35" x="95.410156"/>
      </g>
     </g>
    </g>
    <g id="xtick_11">
     <g id="line2d_43">
      <path d="M 348.687169 113.990875 
L 348.687169 18.670875 
" clip-path="url(#p9cc705d6f3)" style="fill: none; stroke: #b0b0b0; stroke-width: 0.8; stroke-linecap: square"/>
     </g>
     <g id="line2d_44">
      <g>
       <use xlink:href="#meb95680b99" x="348.687169" y="113.990875" style="stroke: #000000; stroke-width: 0.8"/>
      </g>
     </g>
     <g id="text_25">
      <!-- 3.0 -->
      <g transform="translate(343.916232 125.549937) scale(0.06 -0.06)">
       <use xlink:href="#DejaVuSans-33"/>
       <use xlink:href="#DejaVuSans-2e" x="63.623047"/>
       <use xlink:href="#DejaVuSans-30" x="95.410156"/>
      </g>
     </g>
    </g>
    <g id="text_26">
     <!-- bits per pixel (bpp) -->
     <g transform="translate(256.527812 135.356812) scale(0.06 -0.06)">
      <use xlink:href="#DejaVuSans-62"/>
      <use xlink:href="#DejaVuSans-69" x="63.476562"/>
      <use xlink:href="#DejaVuSans-74" x="91.259766"/>
      <use xlink:href="#DejaVuSans-73" x="130.46875"/>
      <use xlink:href="#DejaVuSans-20" x="182.568359"/>
      <use xlink:href="#DejaVuSans-70" x="214.355469"/>
      <use xlink:href="#DejaVuSans-65" x="277.832031"/>
      <use xlink:href="#DejaVuSans-72" x="339.355469"/>
      <use xlink:href="#DejaVuSans-20" x="380.46875"/>
      <use xlink:href="#DejaVuSans-70" x="412.255859"/>
      <use xlink:href="#DejaVuSans-69" x="475.732422"/>
      <use xlink:href="#DejaVuSans-78" x="503.515625"/>
      <use xlink:href="#DejaVuSans-65" x="559.570312"/>
      <use xlink:href="#DejaVuSans-6c" x="621.09375"/>
      <use xlink:href="#DejaVuSans-20" x="648.876953"/>
      <use xlink:href="#DejaVuSans-28" x="680.664062"/>
      <use xlink:href="#DejaVuSans-62" x="719.677734"/>
      <use xlink:href="#DejaVuSans-70" x="783.154297"/>
      <use xlink:href="#DejaVuSans-70" x="846.630859"/>
      <use xlink:href="#DejaVuSans-29" x="910.107422"/>
     </g>
    </g>
   </g>
   <g id="matplotlib.axis_4">
    <g id="ytick_7">
     <g id="line2d_45">
      <path d="M 216.48875 97.471404 
L 353.51625 97.471404 
" clip-path="url(#p9cc705d6f3)" style="fill: none; stroke: #b0b0b0; stroke-width: 0.8; stroke-linecap: square"/>
     </g>
     <g id="line2d_46">
      <g>
       <use xlink:href="#m29397a6697" x="216.48875" y="97.471404" style="stroke: #000000; stroke-width: 0.8"/>
      </g>
     </g>
     <g id="text_27">
      <!-- 32.0 -->
      <g transform="translate(196.129375 99.750935) scale(0.06 -0.06)">
       <use xlink:href="#DejaVuSans-33"/>
       <use xlink:href="#DejaVuSans-32" x="63.623047"/>
       <use xlink:href="#DejaVuSans-2e" x="127.246094"/>
       <use xlink:href="#DejaVuSans-30" x="159.033203"/>
      </g>
     </g>
    </g>
    <g id="ytick_8">
     <g id="line2d_47">
      <path d="M 216.48875 76.01396 
L 353.51625 76.01396 
" clip-path="url(#p9cc705d6f3)" style="fill: none; stroke: #b0b0b0; stroke-width: 0.8; stroke-linecap: square"/>
     </g>
     <g id="line2d_48">
      <g>
       <use xlink:href="#m29397a6697" x="216.48875" y="76.01396" style="stroke: #000000; stroke-width: 0.8"/>
      </g>
     </g>
     <g id="text_28">
      <!-- 34.0 -->
      <g transform="translate(196.129375 78.293492) scale(0.06 -0.06)">
       <defs>
        <path id="DejaVuSans-34" d="M 2419 4116 
L 825 1625 
L 2419 1625 
L 2419 4116 
z
M 2253 4666 
L 3047 4666 
L 3047 1625 
L 3713 1625 
L 3713 1100 
L 3047 1100 
L 3047 0 
L 2419 0 
L 2419 1100 
L 313 1100 
L 313 1709 
L 2253 4666 
z
" transform="scale(0.015625)"/>
       </defs>
       <use xlink:href="#DejaVuSans-33"/>
       <use xlink:href="#DejaVuSans-34" x="63.623047"/>
       <use xlink:href="#DejaVuSans-2e" x="127.246094"/>
       <use xlink:href="#DejaVuSans-30" x="159.033203"/>
      </g>
     </g>
    </g>
    <g id="ytick_9">
     <g id="line2d_49">
      <path d="M 216.48875 54.556517 
L 353.51625 54.556517 
" clip-path="url(#p9cc705d6f3)" style="fill: none; stroke: #b0b0b0; stroke-width: 0.8; stroke-linecap: square"/>
     </g>
     <g id="line2d_50">
      <g>
       <use xlink:href="#m29397a6697" x="216.48875" y="54.556517" style="stroke: #000000; stroke-width: 0.8"/>
      </g>
     </g>
     <g id="text_29">
      <!-- 36.0 -->
      <g transform="translate(196.129375 56.836048) scale(0.06 -0.06)">
       <defs>
        <path id="DejaVuSans-36" d="M 2113 2584 
Q 1688 2584 1439 2293 
Q 1191 2003 1191 1497 
Q 1191 994 1439 701 
Q 1688 409 2113 409 
Q 2538 409 2786 701 
Q 3034 994 3034 1497 
Q 3034 2003 2786 2293 
Q 2538 2584 2113 2584 
z
M 3366 4563 
L 3366 3988 
Q 3128 4100 2886 4159 
Q 2644 4219 2406 4219 
Q 1781 4219 1451 3797 
Q 1122 3375 1075 2522 
Q 1259 2794 1537 2939 
Q 1816 3084 2150 3084 
Q 2853 3084 3261 2657 
Q 3669 2231 3669 1497 
Q 3669 778 3244 343 
Q 2819 -91 2113 -91 
Q 1303 -91 875 529 
Q 447 1150 447 2328 
Q 447 3434 972 4092 
Q 1497 4750 2381 4750 
Q 2619 4750 2861 4703 
Q 3103 4656 3366 4563 
z
" transform="scale(0.015625)"/>
       </defs>
       <use xlink:href="#DejaVuSans-33"/>
       <use xlink:href="#DejaVuSans-36" x="63.623047"/>
       <use xlink:href="#DejaVuSans-2e" x="127.246094"/>
       <use xlink:href="#DejaVuSans-30" x="159.033203"/>
      </g>
     </g>
    </g>
    <g id="ytick_10">
     <g id="line2d_51">
      <path d="M 216.48875 33.099074 
L 353.51625 33.099074 
" clip-path="url(#p9cc705d6f3)" style="fill: none; stroke: #b0b0b0; stroke-width: 0.8; stroke-linecap: square"/>
     </g>
     <g id="line2d_52">
      <g>
       <use xlink:href="#m29397a6697" x="216.48875" y="33.099074" style="stroke: #000000; stroke-width: 0.8"/>
      </g>
     </g>
     <g id="text_30">
      <!-- 38.0 -->
      <g transform="translate(196.129375 35.378605) scale(0.06 -0.06)">
       <defs>
        <path id="DejaVuSans-38" d="M 2034 2216 
Q 1584 2216 1326 1975 
Q 1069 1734 1069 1313 
Q 1069 891 1326 650 
Q 1584 409 2034 409 
Q 2484 409 2743 651 
Q 3003 894 3003 1313 
Q 3003 1734 2745 1975 
Q 2488 2216 2034 2216 
z
M 1403 2484 
Q 997 2584 770 2862 
Q 544 3141 544 3541 
Q 544 4100 942 4425 
Q 1341 4750 2034 4750 
Q 2731 4750 3128 4425 
Q 3525 4100 3525 3541 
Q 3525 3141 3298 2862 
Q 3072 2584 2669 2484 
Q 3125 2378 3379 2068 
Q 3634 1759 3634 1313 
Q 3634 634 3220 271 
Q 2806 -91 2034 -91 
Q 1263 -91 848 271 
Q 434 634 434 1313 
Q 434 1759 690 2068 
Q 947 2378 1403 2484 
z
M 1172 3481 
Q 1172 3119 1398 2916 
Q 1625 2713 2034 2713 
Q 2441 2713 2670 2916 
Q 2900 3119 2900 3481 
Q 2900 3844 2670 4047 
Q 2441 4250 2034 4250 
Q 1625 4250 1398 4047 
Q 1172 3844 1172 3481 
z
" transform="scale(0.015625)"/>
       </defs>
       <use xlink:href="#DejaVuSans-33"/>
       <use xlink:href="#DejaVuSans-38" x="63.623047"/>
       <use xlink:href="#DejaVuSans-2e" x="127.246094"/>
       <use xlink:href="#DejaVuSans-30" x="159.033203"/>
      </g>
     </g>
    </g>
    <g id="text_31">
     <!-- PSNR (dB) -->
     <g transform="translate(190.881562 81.630406) rotate(-90) scale(0.06 -0.06)">
      <use xlink:href="#DejaVuSans-50"/>
      <use xlink:href="#DejaVuSans-53" x="60.302734"/>
      <use xlink:href="#DejaVuSans-4e" x="123.779297"/>
      <use xlink:href="#DejaVuSans-52" x="198.583984"/>
      <use xlink:href="#DejaVuSans-20" x="268.066406"/>
      <use xlink:href="#DejaVuSans-28" x="299.853516"/>
      <use xlink:href="#DejaVuSans-64" x="338.867188"/>
      <use xlink:href="#DejaVuSans-42" x="402.34375"/>
      <use xlink:href="#DejaVuSans-29" x="470.947266"/>
     </g>
    </g>
   </g>
   <g id="line2d_53">
    <path d="M 222.717273 109.33331 
L 236.077004 90.293589 
L 268.777862 57.96859 
L 311.613315 27.661149 
" clip-path="url(#p9cc705d6f3)" style="fill: none; stroke: #0000ff; stroke-width: 0.75; stroke-linecap: square"/>
    <g clip-path="url(#p9cc705d6f3)">
     <use xlink:href="#m8831cec4e3" x="222.717273" y="109.33331" style="fill: #0000ff; stroke: #0000ff"/>
     <use xlink:href="#m8831cec4e3" x="236.077004" y="90.293589" style="fill: #0000ff; stroke: #0000ff"/>
     <use xlink:href="#m8831cec4e3" x="268.777862" y="57.96859" style="fill: #0000ff; stroke: #0000ff"/>
     <use xlink:href="#m8831cec4e3" x="311.613315" y="27.661149" style="fill: #0000ff; stroke: #0000ff"/>
    </g>
   </g>
   <g id="line2d_54">
    <path d="M 228.231041 108.127317 
L 244.560887 88.862315 
L 286.087359 55.88899 
L 335.825601 27.165431 
" clip-path="url(#p9cc705d6f3)" style="fill: none; stroke: #dda0dd; stroke-width: 0.75; stroke-linecap: square"/>
    <g clip-path="url(#p9cc705d6f3)">
     <use xlink:href="#m7b2426eb36" x="228.231041" y="108.127317" style="fill: #dda0dd; stroke: #dda0dd"/>
     <use xlink:href="#m7b2426eb36" x="244.560887" y="88.862315" style="fill: #dda0dd; stroke: #dda0dd"/>
     <use xlink:href="#m7b2426eb36" x="286.087359" y="55.88899" style="fill: #dda0dd; stroke: #dda0dd"/>
     <use xlink:href="#m7b2426eb36" x="335.825601" y="27.165431" style="fill: #dda0dd; stroke: #dda0dd"/>
    </g>
   </g>
   <g id="line2d_55">
    <path d="M 230.092274 109.658148 
L 237.057593 100.278598 
L 265.823589 72.563659 
L 281.13366 61.963465 
L 347.287727 23.003602 
" clip-path="url(#p9cc705d6f3)" style="fill: none; stroke: #ff4500; stroke-width: 0.75; stroke-linecap: square"/>
    <g clip-path="url(#p9cc705d6f3)">
     <use xlink:href="#madceb67ae4" x="230.092274" y="109.658148" style="fill: #ff4500; stroke: #ff4500"/>
     <use xlink:href="#madceb67ae4" x="237.057593" y="100.278598" style="fill: #ff4500; stroke: #ff4500"/>
     <use xlink:href="#madceb67ae4" x="265.823589" y="72.563659" style="fill: #ff4500; stroke: #ff4500"/>
     <use xlink:href="#madceb67ae4" x="281.13366" y="61.963465" style="fill: #ff4500; stroke: #ff4500"/>
     <use xlink:href="#madceb67ae4" x="347.287727" y="23.003602" style="fill: #ff4500; stroke: #ff4500"/>
    </g>
   </g>
   <g id="patch_9">
    <path d="M 216.48875 113.990875 
L 216.48875 18.670875 
" style="fill: none; stroke: #000000; stroke-width: 0.8; stroke-linejoin: miter; stroke-linecap: square"/>
   </g>
   <g id="patch_10">
    <path d="M 353.51625 113.990875 
L 353.51625 18.670875 
" style="fill: none; stroke: #000000; stroke-width: 0.8; stroke-linejoin: miter; stroke-linecap: square"/>
   </g>
   <g id="patch_11">
    <path d="M 216.48875 113.990875 
L 353.51625 113.990875 
" style="fill: none; stroke: #000000; stroke-width: 0.8; stroke-linejoin: miter; stroke-linecap: square"/>
   </g>
   <g id="patch_12">
    <path d="M 216.48875 18.670875 
L 353.51625 18.670875 
" style="fill: none; stroke: #000000; stroke-width: 0.8; stroke-linejoin: miter; stroke-linecap: square"/>
   </g>
   <g id="text_32">
    <!-- CelebA -->
    <g transform="translate(272.31025 12.670875) scale(0.072 -0.072)">
     <defs>
      <path id="DejaVuSans-41" d="M 2188 4044 
L 1331 1722 
L 3047 1722 
L 2188 4044 
z
M 1831 4666 
L 2547 4666 
L 4325 0 
L 3669 0 
L 3244 1197 
L 1141 1197 
L 716 0 
L 50 0 
L 1831 4666 
z
" transform="scale(0.015625)"/>
     </defs>
     <use xlink:href="#DejaVuSans-43"/>
     <use xlink:href="#DejaVuSans-65" x="69.824219"/>
     <use xlink:href="#DejaVuSans-6c" x="131.347656"/>
     <use xlink:href="#DejaVuSans-65" x="159.130859"/>
     <use xlink:href="#DejaVuSans-62" x="220.654297"/>
     <use xlink:href="#DejaVuSans-41" x="284.130859"/>
    </g>
   </g>
   <g id="legend_2">
    <g id="patch_13">
     <path d="M 265.387266 111.740875 
L 350.36625 111.740875 
Q 351.26625 111.740875 351.26625 110.840875 
L 351.26625 91.475406 
Q 351.26625 90.575406 350.36625 90.575406 
L 265.387266 90.575406 
Q 264.487266 90.575406 264.487266 91.475406 
L 264.487266 110.840875 
Q 264.487266 111.740875 265.387266 111.740875 
z
" style="fill: #ffffff; opacity: 0.8; stroke: #cccccc; stroke-linejoin: miter"/>
    </g>
    <g id="line2d_56">
     <path d="M 266.287266 94.219703 
L 270.787266 94.219703 
L 275.287266 94.219703 
" style="fill: none; stroke: #0000ff; stroke-width: 0.75; stroke-linecap: square"/>
     <g>
      <use xlink:href="#m8831cec4e3" x="270.787266" y="94.219703" style="fill: #0000ff; stroke: #0000ff"/>
     </g>
    </g>
    <g id="text_33">
     <!-- Strumpler meta-learned [2021] -->
     <g transform="translate(278.887266 95.794703) scale(0.045 -0.045)">
      <use xlink:href="#DejaVuSans-53"/>
      <use xlink:href="#DejaVuSans-74" x="63.476562"/>
      <use xlink:href="#DejaVuSans-72" x="102.685547"/>
      <use xlink:href="#DejaVuSans-75" x="143.798828"/>
      <use xlink:href="#DejaVuSans-6d" x="207.177734"/>
      <use xlink:href="#DejaVuSans-70" x="304.589844"/>
      <use xlink:href="#DejaVuSans-6c" x="368.066406"/>
      <use xlink:href="#DejaVuSans-65" x="395.849609"/>
      <use xlink:href="#DejaVuSans-72" x="457.373047"/>
      <use xlink:href="#DejaVuSans-20" x="498.486328"/>
      <use xlink:href="#DejaVuSans-6d" x="530.273438"/>
      <use xlink:href="#DejaVuSans-65" x="627.685547"/>
      <use xlink:href="#DejaVuSans-74" x="689.208984"/>
      <use xlink:href="#DejaVuSans-61" x="728.417969"/>
      <use xlink:href="#DejaVuSans-2d" x="789.697266"/>
      <use xlink:href="#DejaVuSans-6c" x="825.78125"/>
      <use xlink:href="#DejaVuSans-65" x="853.564453"/>
      <use xlink:href="#DejaVuSans-61" x="915.087891"/>
      <use xlink:href="#DejaVuSans-72" x="976.367188"/>
      <use xlink:href="#DejaVuSans-6e" x="1015.730469"/>
      <use xlink:href="#DejaVuSans-65" x="1079.109375"/>
      <use xlink:href="#DejaVuSans-64" x="1140.632812"/>
      <use xlink:href="#DejaVuSans-20" x="1204.109375"/>
      <use xlink:href="#DejaVuSans-5b" x="1235.896484"/>
      <use xlink:href="#DejaVuSans-32" x="1274.910156"/>
      <use xlink:href="#DejaVuSans-30" x="1338.533203"/>
      <use xlink:href="#DejaVuSans-32" x="1402.15625"/>
      <use xlink:href="#DejaVuSans-31" x="1465.779297"/>
      <use xlink:href="#DejaVuSans-5d" x="1529.402344"/>
     </g>
    </g>
    <g id="line2d_57">
     <path d="M 266.287266 100.824859 
L 270.787266 100.824859 
L 275.287266 100.824859 
" style="fill: none; stroke: #dda0dd; stroke-width: 0.75; stroke-linecap: square"/>
     <g>
      <use xlink:href="#m7b2426eb36" x="270.787266" y="100.824859" style="fill: #dda0dd; stroke: #dda0dd"/>
     </g>
    </g>
    <g id="text_34">
     <!-- Strumpler basic [2021] -->
     <g transform="translate(278.887266 102.399859) scale(0.045 -0.045)">
      <use xlink:href="#DejaVuSans-53"/>
      <use xlink:href="#DejaVuSans-74" x="63.476562"/>
      <use xlink:href="#DejaVuSans-72" x="102.685547"/>
      <use xlink:href="#DejaVuSans-75" x="143.798828"/>
      <use xlink:href="#DejaVuSans-6d" x="207.177734"/>
      <use xlink:href="#DejaVuSans-70" x="304.589844"/>
      <use xlink:href="#DejaVuSans-6c" x="368.066406"/>
      <use xlink:href="#DejaVuSans-65" x="395.849609"/>
      <use xlink:href="#DejaVuSans-72" x="457.373047"/>
      <use xlink:href="#DejaVuSans-20" x="498.486328"/>
      <use xlink:href="#DejaVuSans-62" x="530.273438"/>
      <use xlink:href="#DejaVuSans-61" x="593.75"/>
      <use xlink:href="#DejaVuSans-73" x="655.029297"/>
      <use xlink:href="#DejaVuSans-69" x="707.128906"/>
      <use xlink:href="#DejaVuSans-63" x="734.912109"/>
      <use xlink:href="#DejaVuSans-20" x="789.892578"/>
      <use xlink:href="#DejaVuSans-5b" x="821.679688"/>
      <use xlink:href="#DejaVuSans-32" x="860.693359"/>
      <use xlink:href="#DejaVuSans-30" x="924.316406"/>
      <use xlink:href="#DejaVuSans-32" x="987.939453"/>
      <use xlink:href="#DejaVuSans-31" x="1051.5625"/>
      <use xlink:href="#DejaVuSans-5d" x="1115.185547"/>
     </g>
    </g>
    <g id="line2d_58">
     <path d="M 266.287266 107.430016 
L 270.787266 107.430016 
L 275.287266 107.430016 
" style="fill: none; stroke: #ff4500; stroke-width: 0.75; stroke-linecap: square"/>
     <g>
      <use xlink:href="#madceb67ae4" x="270.787266" y="107.430016" style="fill: #ff4500; stroke: #ff4500"/>
     </g>
    </g>
    <g id="text_35">
     <!-- NIF (Ours) -->
     <g transform="translate(278.887266 109.005016) scale(0.045 -0.045)">
      <use xlink:href="#DejaVuSans-4e"/>
      <use xlink:href="#DejaVuSans-49" x="74.804688"/>
      <use xlink:href="#DejaVuSans-46" x="104.296875"/>
      <use xlink:href="#DejaVuSans-20" x="161.816406"/>
      <use xlink:href="#DejaVuSans-28" x="193.603516"/>
      <use xlink:href="#DejaVuSans-4f" x="232.617188"/>
      <use xlink:href="#DejaVuSans-75" x="311.328125"/>
      <use xlink:href="#DejaVuSans-72" x="374.707031"/>
      <use xlink:href="#DejaVuSans-73" x="415.820312"/>
      <use xlink:href="#DejaVuSans-29" x="467.919922"/>
     </g>
    </g>
   </g>
  </g>
 </g>
 <defs>
  <clipPath id="p78aa567ac2">
   <rect x="37.36625" y="18.670875" width="137.0275" height="95.32"/>
  </clipPath>
  <clipPath id="p9cc705d6f3">
   <rect x="216.48875" y="18.670875" width="137.0275" height="95.32"/>
  </clipPath>
 </defs>
</svg>
