<?xml version="1.0" encoding="utf-8" standalone="no"?>
<!DOCTYPE svg PUBLIC "-//W3C//DTD SVG 1.1//EN"
  "http://www.w3.org/Graphics/SVG/1.1/DTD/svg11.dtd">
<svg xmlns:xlink="http://www.w3.org/1999/xlink" width="465.565pt" height="430.364375pt" viewBox="0 0 465.565 430.364375" xmlns="http://www.w3.org/2000/svg" version="1.1">
 <metadata>
  <rdf:RDF xmlns:dc="http://purl.org/dc/elements/1.1/" xmlns:cc="http://creativecommons.org/ns#" xmlns:rdf="http://www.w3.org/1999/02/22-rdf-syntax-ns#">
   <cc:Work>
    <dc:type rdf:resource="http://purl.org/dc/dcmitype/StillImage"/>
    <dc:date>2023-08-07T10:05:01.138252</dc:date>
    <dc:format>image/svg+xml</dc:format>
    <dc:creator>
     <cc:Agent>
      <dc:title>Matplotlib v3.7.1, https://matplotlib.org/</dc:title>
     </cc:Agent>
    </dc:creator>
   </cc:Work>
  </rdf:RDF>
 </metadata>
 <defs>
  <style type="text/css">*{stroke-linejoin: round; stroke-linecap: butt}</style>
 </defs>
 <g id="figure_1">
  <g id="patch_1">
   <path d="M -0 430.364375 
L 465.565 430.364375 
L 465.565 0 
L -0 0 
L -0 430.364375 
z
" style="fill: none"/>
  </g>
  <g id="axes_1">
   <g id="patch_2">
    <path d="M 43.755 186.439375 
L 458.365 186.439375 
L 458.365 10.239375 
L 43.755 10.239375 
L 43.755 186.439375 
z
" style="fill: none"/>
   </g>
   <g id="matplotlib.axis_1">
    <g id="xtick_1">
     <g id="line2d_1">
      <path d="M 43.755 186.439375 
L 43.755 10.239375 
" clip-path="url(#p9ee2fe2bca)" style="fill: none; stroke: #b0b0b0; stroke-width: 0.8; stroke-linecap: square"/>
     </g>
     <g id="line2d_2">
      <defs>
       <path id="m62a7f54c9b" d="M 0 0 
L 0 3.5 
" style="stroke: #000000; stroke-width: 0.8"/>
      </defs>
      <g>
       <use xlink:href="#m62a7f54c9b" x="43.755" y="186.439375" style="stroke: #000000; stroke-width: 0.8"/>
      </g>
     </g>
     <g id="text_1">
      <!-- 0.0 -->
      <g transform="translate(37.39375 199.518125) scale(0.08 -0.08)">
       <defs>
        <path id="DejaVuSans-30" d="M 2034 4250 
Q 1547 4250 1301 3770 
Q 1056 3291 1056 2328 
Q 1056 1369 1301 889 
Q 1547 409 2034 409 
Q 2525 409 2770 889 
Q 3016 1369 3016 2328 
Q 3016 3291 2770 3770 
Q 2525 4250 2034 4250 
z
M 2034 4750 
Q 2819 4750 3233 4129 
Q 3647 3509 3647 2328 
Q 3647 1150 3233 529 
Q 2819 -91 2034 -91 
Q 1250 -91 836 529 
Q 422 1150 422 2328 
Q 422 3509 836 4129 
Q 1250 4750 2034 4750 
z
" transform="scale(0.015625)"/>
        <path id="DejaVuSans-2e" d="M 684 794 
L 1344 794 
L 1344 0 
L 684 0 
L 684 794 
z
" transform="scale(0.015625)"/>
       </defs>
       <use xlink:href="#DejaVuSans-30"/>
       <use xlink:href="#DejaVuSans-2e" x="63.623047"/>
       <use xlink:href="#DejaVuSans-30" x="95.410156"/>
      </g>
     </g>
    </g>
    <g id="xtick_2">
     <g id="line2d_3">
      <path d="M 93.113333 186.439375 
L 93.113333 10.239375 
" clip-path="url(#p9ee2fe2bca)" style="fill: none; stroke: #b0b0b0; stroke-width: 0.8; stroke-linecap: square"/>
     </g>
     <g id="line2d_4">
      <g>
       <use xlink:href="#m62a7f54c9b" x="93.113333" y="186.439375" style="stroke: #000000; stroke-width: 0.8"/>
      </g>
     </g>
     <g id="text_2">
      <!-- 0.5 -->
      <g transform="translate(86.752083 199.518125) scale(0.08 -0.08)">
       <defs>
        <path id="DejaVuSans-35" d="M 691 4666 
L 3169 4666 
L 3169 4134 
L 1269 4134 
L 1269 2991 
Q 1406 3038 1543 3061 
Q 1681 3084 1819 3084 
Q 2600 3084 3056 2656 
Q 3513 2228 3513 1497 
Q 3513 744 3044 326 
Q 2575 -91 1722 -91 
Q 1428 -91 1123 -41 
Q 819 9 494 109 
L 494 744 
Q 775 591 1075 516 
Q 1375 441 1709 441 
Q 2250 441 2565 725 
Q 2881 1009 2881 1497 
Q 2881 1984 2565 2268 
Q 2250 2553 1709 2553 
Q 1456 2553 1204 2497 
Q 953 2441 691 2322 
L 691 4666 
z
" transform="scale(0.015625)"/>
       </defs>
       <use xlink:href="#DejaVuSans-30"/>
       <use xlink:href="#DejaVuSans-2e" x="63.623047"/>
       <use xlink:href="#DejaVuSans-35" x="95.410156"/>
      </g>
     </g>
    </g>
    <g id="xtick_3">
     <g id="line2d_5">
      <path d="M 142.471667 186.439375 
L 142.471667 10.239375 
" clip-path="url(#p9ee2fe2bca)" style="fill: none; stroke: #b0b0b0; stroke-width: 0.8; stroke-linecap: square"/>
     </g>
     <g id="line2d_6">
      <g>
       <use xlink:href="#m62a7f54c9b" x="142.471667" y="186.439375" style="stroke: #000000; stroke-width: 0.8"/>
      </g>
     </g>
     <g id="text_3">
      <!-- 1.0 -->
      <g transform="translate(136.110417 199.518125) scale(0.08 -0.08)">
       <defs>
        <path id="DejaVuSans-31" d="M 794 531 
L 1825 531 
L 1825 4091 
L 703 3866 
L 703 4441 
L 1819 4666 
L 2450 4666 
L 2450 531 
L 3481 531 
L 3481 0 
L 794 0 
L 794 531 
z
" transform="scale(0.015625)"/>
       </defs>
       <use xlink:href="#DejaVuSans-31"/>
       <use xlink:href="#DejaVuSans-2e" x="63.623047"/>
       <use xlink:href="#DejaVuSans-30" x="95.410156"/>
      </g>
     </g>
    </g>
    <g id="xtick_4">
     <g id="line2d_7">
      <path d="M 191.83 186.439375 
L 191.83 10.239375 
" clip-path="url(#p9ee2fe2bca)" style="fill: none; stroke: #b0b0b0; stroke-width: 0.8; stroke-linecap: square"/>
     </g>
     <g id="line2d_8">
      <g>
       <use xlink:href="#m62a7f54c9b" x="191.83" y="186.439375" style="stroke: #000000; stroke-width: 0.8"/>
      </g>
     </g>
     <g id="text_4">
      <!-- 1.5 -->
      <g transform="translate(185.46875 199.518125) scale(0.08 -0.08)">
       <use xlink:href="#DejaVuSans-31"/>
       <use xlink:href="#DejaVuSans-2e" x="63.623047"/>
       <use xlink:href="#DejaVuSans-35" x="95.410156"/>
      </g>
     </g>
    </g>
    <g id="xtick_5">
     <g id="line2d_9">
      <path d="M 241.188333 186.439375 
L 241.188333 10.239375 
" clip-path="url(#p9ee2fe2bca)" style="fill: none; stroke: #b0b0b0; stroke-width: 0.8; stroke-linecap: square"/>
     </g>
     <g id="line2d_10">
      <g>
       <use xlink:href="#m62a7f54c9b" x="241.188333" y="186.439375" style="stroke: #000000; stroke-width: 0.8"/>
      </g>
     </g>
     <g id="text_5">
      <!-- 2.0 -->
      <g transform="translate(234.827083 199.518125) scale(0.08 -0.08)">
       <defs>
        <path id="DejaVuSans-32" d="M 1228 531 
L 3431 531 
L 3431 0 
L 469 0 
L 469 531 
Q 828 903 1448 1529 
Q 2069 2156 2228 2338 
Q 2531 2678 2651 2914 
Q 2772 3150 2772 3378 
Q 2772 3750 2511 3984 
Q 2250 4219 1831 4219 
Q 1534 4219 1204 4116 
Q 875 4013 500 3803 
L 500 4441 
Q 881 4594 1212 4672 
Q 1544 4750 1819 4750 
Q 2544 4750 2975 4387 
Q 3406 4025 3406 3419 
Q 3406 3131 3298 2873 
Q 3191 2616 2906 2266 
Q 2828 2175 2409 1742 
Q 1991 1309 1228 531 
z
" transform="scale(0.015625)"/>
       </defs>
       <use xlink:href="#DejaVuSans-32"/>
       <use xlink:href="#DejaVuSans-2e" x="63.623047"/>
       <use xlink:href="#DejaVuSans-30" x="95.410156"/>
      </g>
     </g>
    </g>
    <g id="xtick_6">
     <g id="line2d_11">
      <path d="M 290.546667 186.439375 
L 290.546667 10.239375 
" clip-path="url(#p9ee2fe2bca)" style="fill: none; stroke: #b0b0b0; stroke-width: 0.8; stroke-linecap: square"/>
     </g>
     <g id="line2d_12">
      <g>
       <use xlink:href="#m62a7f54c9b" x="290.546667" y="186.439375" style="stroke: #000000; stroke-width: 0.8"/>
      </g>
     </g>
     <g id="text_6">
      <!-- 2.5 -->
      <g transform="translate(284.185417 199.518125) scale(0.08 -0.08)">
       <use xlink:href="#DejaVuSans-32"/>
       <use xlink:href="#DejaVuSans-2e" x="63.623047"/>
       <use xlink:href="#DejaVuSans-35" x="95.410156"/>
      </g>
     </g>
    </g>
    <g id="xtick_7">
     <g id="line2d_13">
      <path d="M 339.905 186.439375 
L 339.905 10.239375 
" clip-path="url(#p9ee2fe2bca)" style="fill: none; stroke: #b0b0b0; stroke-width: 0.8; stroke-linecap: square"/>
     </g>
     <g id="line2d_14">
      <g>
       <use xlink:href="#m62a7f54c9b" x="339.905" y="186.439375" style="stroke: #000000; stroke-width: 0.8"/>
      </g>
     </g>
     <g id="text_7">
      <!-- 3.0 -->
      <g transform="translate(333.54375 199.518125) scale(0.08 -0.08)">
       <defs>
        <path id="DejaVuSans-33" d="M 2597 2516 
Q 3050 2419 3304 2112 
Q 3559 1806 3559 1356 
Q 3559 666 3084 287 
Q 2609 -91 1734 -91 
Q 1441 -91 1130 -33 
Q 819 25 488 141 
L 488 750 
Q 750 597 1062 519 
Q 1375 441 1716 441 
Q 2309 441 2620 675 
Q 2931 909 2931 1356 
Q 2931 1769 2642 2001 
Q 2353 2234 1838 2234 
L 1294 2234 
L 1294 2753 
L 1863 2753 
Q 2328 2753 2575 2939 
Q 2822 3125 2822 3475 
Q 2822 3834 2567 4026 
Q 2313 4219 1838 4219 
Q 1578 4219 1281 4162 
Q 984 4106 628 3988 
L 628 4550 
Q 988 4650 1302 4700 
Q 1616 4750 1894 4750 
Q 2613 4750 3031 4423 
Q 3450 4097 3450 3541 
Q 3450 3153 3228 2886 
Q 3006 2619 2597 2516 
z
" transform="scale(0.015625)"/>
       </defs>
       <use xlink:href="#DejaVuSans-33"/>
       <use xlink:href="#DejaVuSans-2e" x="63.623047"/>
       <use xlink:href="#DejaVuSans-30" x="95.410156"/>
      </g>
     </g>
    </g>
    <g id="xtick_8">
     <g id="line2d_15">
      <path d="M 389.263333 186.439375 
L 389.263333 10.239375 
" clip-path="url(#p9ee2fe2bca)" style="fill: none; stroke: #b0b0b0; stroke-width: 0.8; stroke-linecap: square"/>
     </g>
     <g id="line2d_16">
      <g>
       <use xlink:href="#m62a7f54c9b" x="389.263333" y="186.439375" style="stroke: #000000; stroke-width: 0.8"/>
      </g>
     </g>
     <g id="text_8">
      <!-- 3.5 -->
      <g transform="translate(382.902083 199.518125) scale(0.08 -0.08)">
       <use xlink:href="#DejaVuSans-33"/>
       <use xlink:href="#DejaVuSans-2e" x="63.623047"/>
       <use xlink:href="#DejaVuSans-35" x="95.410156"/>
      </g>
     </g>
    </g>
    <g id="xtick_9">
     <g id="line2d_17">
      <path d="M 438.621667 186.439375 
L 438.621667 10.239375 
" clip-path="url(#p9ee2fe2bca)" style="fill: none; stroke: #b0b0b0; stroke-width: 0.8; stroke-linecap: square"/>
     </g>
     <g id="line2d_18">
      <g>
       <use xlink:href="#m62a7f54c9b" x="438.621667" y="186.439375" style="stroke: #000000; stroke-width: 0.8"/>
      </g>
     </g>
     <g id="text_9">
      <!-- 4.0 -->
      <g transform="translate(432.260417 199.518125) scale(0.08 -0.08)">
       <defs>
        <path id="DejaVuSans-34" d="M 2419 4116 
L 825 1625 
L 2419 1625 
L 2419 4116 
z
M 2253 4666 
L 3047 4666 
L 3047 1625 
L 3713 1625 
L 3713 1100 
L 3047 1100 
L 3047 0 
L 2419 0 
L 2419 1100 
L 313 1100 
L 313 1709 
L 2253 4666 
z
" transform="scale(0.015625)"/>
       </defs>
       <use xlink:href="#DejaVuSans-34"/>
       <use xlink:href="#DejaVuSans-2e" x="63.623047"/>
       <use xlink:href="#DejaVuSans-30" x="95.410156"/>
      </g>
     </g>
    </g>
    <g id="text_10">
     <!-- bits per pixel (bpp) -->
     <g transform="translate(213.09375 211.260625) scale(0.08 -0.08)">
      <defs>
       <path id="DejaVuSans-62" d="M 3116 1747 
Q 3116 2381 2855 2742 
Q 2594 3103 2138 3103 
Q 1681 3103 1420 2742 
Q 1159 2381 1159 1747 
Q 1159 1113 1420 752 
Q 1681 391 2138 391 
Q 2594 391 2855 752 
Q 3116 1113 3116 1747 
z
M 1159 2969 
Q 1341 3281 1617 3432 
Q 1894 3584 2278 3584 
Q 2916 3584 3314 3078 
Q 3713 2572 3713 1747 
Q 3713 922 3314 415 
Q 2916 -91 2278 -91 
Q 1894 -91 1617 61 
Q 1341 213 1159 525 
L 1159 0 
L 581 0 
L 581 4863 
L 1159 4863 
L 1159 2969 
z
" transform="scale(0.015625)"/>
       <path id="DejaVuSans-69" d="M 603 3500 
L 1178 3500 
L 1178 0 
L 603 0 
L 603 3500 
z
M 603 4863 
L 1178 4863 
L 1178 4134 
L 603 4134 
L 603 4863 
z
" transform="scale(0.015625)"/>
       <path id="DejaVuSans-74" d="M 1172 4494 
L 1172 3500 
L 2356 3500 
L 2356 3053 
L 1172 3053 
L 1172 1153 
Q 1172 725 1289 603 
Q 1406 481 1766 481 
L 2356 481 
L 2356 0 
L 1766 0 
Q 1100 0 847 248 
Q 594 497 594 1153 
L 594 3053 
L 172 3053 
L 172 3500 
L 594 3500 
L 594 4494 
L 1172 4494 
z
" transform="scale(0.015625)"/>
       <path id="DejaVuSans-73" d="M 2834 3397 
L 2834 2853 
Q 2591 2978 2328 3040 
Q 2066 3103 1784 3103 
Q 1356 3103 1142 2972 
Q 928 2841 928 2578 
Q 928 2378 1081 2264 
Q 1234 2150 1697 2047 
L 1894 2003 
Q 2506 1872 2764 1633 
Q 3022 1394 3022 966 
Q 3022 478 2636 193 
Q 2250 -91 1575 -91 
Q 1294 -91 989 -36 
Q 684 19 347 128 
L 347 722 
Q 666 556 975 473 
Q 1284 391 1588 391 
Q 1994 391 2212 530 
Q 2431 669 2431 922 
Q 2431 1156 2273 1281 
Q 2116 1406 1581 1522 
L 1381 1569 
Q 847 1681 609 1914 
Q 372 2147 372 2553 
Q 372 3047 722 3315 
Q 1072 3584 1716 3584 
Q 2034 3584 2315 3537 
Q 2597 3491 2834 3397 
z
" transform="scale(0.015625)"/>
       <path id="DejaVuSans-20" transform="scale(0.015625)"/>
       <path id="DejaVuSans-70" d="M 1159 525 
L 1159 -1331 
L 581 -1331 
L 581 3500 
L 1159 3500 
L 1159 2969 
Q 1341 3281 1617 3432 
Q 1894 3584 2278 3584 
Q 2916 3584 3314 3078 
Q 3713 2572 3713 1747 
Q 3713 922 3314 415 
Q 2916 -91 2278 -91 
Q 1894 -91 1617 61 
Q 1341 213 1159 525 
z
M 3116 1747 
Q 3116 2381 2855 2742 
Q 2594 3103 2138 3103 
Q 1681 3103 1420 2742 
Q 1159 2381 1159 1747 
Q 1159 1113 1420 752 
Q 1681 391 2138 391 
Q 2594 391 2855 752 
Q 3116 1113 3116 1747 
z
" transform="scale(0.015625)"/>
       <path id="DejaVuSans-65" d="M 3597 1894 
L 3597 1613 
L 953 1613 
Q 991 1019 1311 708 
Q 1631 397 2203 397 
Q 2534 397 2845 478 
Q 3156 559 3463 722 
L 3463 178 
Q 3153 47 2828 -22 
Q 2503 -91 2169 -91 
Q 1331 -91 842 396 
Q 353 884 353 1716 
Q 353 2575 817 3079 
Q 1281 3584 2069 3584 
Q 2775 3584 3186 3129 
Q 3597 2675 3597 1894 
z
M 3022 2063 
Q 3016 2534 2758 2815 
Q 2500 3097 2075 3097 
Q 1594 3097 1305 2825 
Q 1016 2553 972 2059 
L 3022 2063 
z
" transform="scale(0.015625)"/>
       <path id="DejaVuSans-72" d="M 2631 2963 
Q 2534 3019 2420 3045 
Q 2306 3072 2169 3072 
Q 1681 3072 1420 2755 
Q 1159 2438 1159 1844 
L 1159 0 
L 581 0 
L 581 3500 
L 1159 3500 
L 1159 2956 
Q 1341 3275 1631 3429 
Q 1922 3584 2338 3584 
Q 2397 3584 2469 3576 
Q 2541 3569 2628 3553 
L 2631 2963 
z
" transform="scale(0.015625)"/>
       <path id="DejaVuSans-78" d="M 3513 3500 
L 2247 1797 
L 3578 0 
L 2900 0 
L 1881 1375 
L 863 0 
L 184 0 
L 1544 1831 
L 300 3500 
L 978 3500 
L 1906 2253 
L 2834 3500 
L 3513 3500 
z
" transform="scale(0.015625)"/>
       <path id="DejaVuSans-6c" d="M 603 4863 
L 1178 4863 
L 1178 0 
L 603 0 
L 603 4863 
z
" transform="scale(0.015625)"/>
       <path id="DejaVuSans-28" d="M 1984 4856 
Q 1566 4138 1362 3434 
Q 1159 2731 1159 2009 
Q 1159 1288 1364 580 
Q 1569 -128 1984 -844 
L 1484 -844 
Q 1016 -109 783 600 
Q 550 1309 550 2009 
Q 550 2706 781 3412 
Q 1013 4119 1484 4856 
L 1984 4856 
z
" transform="scale(0.015625)"/>
       <path id="DejaVuSans-29" d="M 513 4856 
L 1013 4856 
Q 1481 4119 1714 3412 
Q 1947 2706 1947 2009 
Q 1947 1309 1714 600 
Q 1481 -109 1013 -844 
L 513 -844 
Q 928 -128 1133 580 
Q 1338 1288 1338 2009 
Q 1338 2731 1133 3434 
Q 928 4138 513 4856 
z
" transform="scale(0.015625)"/>
      </defs>
      <use xlink:href="#DejaVuSans-62"/>
      <use xlink:href="#DejaVuSans-69" x="63.476562"/>
      <use xlink:href="#DejaVuSans-74" x="91.259766"/>
      <use xlink:href="#DejaVuSans-73" x="130.46875"/>
      <use xlink:href="#DejaVuSans-20" x="182.568359"/>
      <use xlink:href="#DejaVuSans-70" x="214.355469"/>
      <use xlink:href="#DejaVuSans-65" x="277.832031"/>
      <use xlink:href="#DejaVuSans-72" x="339.355469"/>
      <use xlink:href="#DejaVuSans-20" x="380.46875"/>
      <use xlink:href="#DejaVuSans-70" x="412.255859"/>
      <use xlink:href="#DejaVuSans-69" x="475.732422"/>
      <use xlink:href="#DejaVuSans-78" x="503.515625"/>
      <use xlink:href="#DejaVuSans-65" x="559.570312"/>
      <use xlink:href="#DejaVuSans-6c" x="621.09375"/>
      <use xlink:href="#DejaVuSans-20" x="648.876953"/>
      <use xlink:href="#DejaVuSans-28" x="680.664062"/>
      <use xlink:href="#DejaVuSans-62" x="719.677734"/>
      <use xlink:href="#DejaVuSans-70" x="783.154297"/>
      <use xlink:href="#DejaVuSans-70" x="846.630859"/>
      <use xlink:href="#DejaVuSans-29" x="910.107422"/>
     </g>
    </g>
   </g>
   <g id="matplotlib.axis_2">
    <g id="ytick_1">
     <g id="line2d_19">
      <path d="M 43.755 176.074669 
L 458.365 176.074669 
" clip-path="url(#p9ee2fe2bca)" style="fill: none; stroke: #b0b0b0; stroke-width: 0.8; stroke-linecap: square"/>
     </g>
     <g id="line2d_20">
      <defs>
       <path id="m2ad5170ed2" d="M 0 0 
L -3.5 0 
" style="stroke: #000000; stroke-width: 0.8"/>
      </defs>
      <g>
       <use xlink:href="#m2ad5170ed2" x="43.755" y="176.074669" style="stroke: #000000; stroke-width: 0.8"/>
      </g>
     </g>
     <g id="text_11">
      <!-- 26.0 -->
      <g transform="translate(18.9425 179.114044) scale(0.08 -0.08)">
       <defs>
        <path id="DejaVuSans-36" d="M 2113 2584 
Q 1688 2584 1439 2293 
Q 1191 2003 1191 1497 
Q 1191 994 1439 701 
Q 1688 409 2113 409 
Q 2538 409 2786 701 
Q 3034 994 3034 1497 
Q 3034 2003 2786 2293 
Q 2538 2584 2113 2584 
z
M 3366 4563 
L 3366 3988 
Q 3128 4100 2886 4159 
Q 2644 4219 2406 4219 
Q 1781 4219 1451 3797 
Q 1122 3375 1075 2522 
Q 1259 2794 1537 2939 
Q 1816 3084 2150 3084 
Q 2853 3084 3261 2657 
Q 3669 2231 3669 1497 
Q 3669 778 3244 343 
Q 2819 -91 2113 -91 
Q 1303 -91 875 529 
Q 447 1150 447 2328 
Q 447 3434 972 4092 
Q 1497 4750 2381 4750 
Q 2619 4750 2861 4703 
Q 3103 4656 3366 4563 
z
" transform="scale(0.015625)"/>
       </defs>
       <use xlink:href="#DejaVuSans-32"/>
       <use xlink:href="#DejaVuSans-36" x="63.623047"/>
       <use xlink:href="#DejaVuSans-2e" x="127.246094"/>
       <use xlink:href="#DejaVuSans-30" x="159.033203"/>
      </g>
     </g>
    </g>
    <g id="ytick_2">
     <g id="line2d_21">
      <path d="M 43.755 155.345257 
L 458.365 155.345257 
" clip-path="url(#p9ee2fe2bca)" style="fill: none; stroke: #b0b0b0; stroke-width: 0.8; stroke-linecap: square"/>
     </g>
     <g id="line2d_22">
      <g>
       <use xlink:href="#m2ad5170ed2" x="43.755" y="155.345257" style="stroke: #000000; stroke-width: 0.8"/>
      </g>
     </g>
     <g id="text_12">
      <!-- 28.0 -->
      <g transform="translate(18.9425 158.384632) scale(0.08 -0.08)">
       <defs>
        <path id="DejaVuSans-38" d="M 2034 2216 
Q 1584 2216 1326 1975 
Q 1069 1734 1069 1313 
Q 1069 891 1326 650 
Q 1584 409 2034 409 
Q 2484 409 2743 651 
Q 3003 894 3003 1313 
Q 3003 1734 2745 1975 
Q 2488 2216 2034 2216 
z
M 1403 2484 
Q 997 2584 770 2862 
Q 544 3141 544 3541 
Q 544 4100 942 4425 
Q 1341 4750 2034 4750 
Q 2731 4750 3128 4425 
Q 3525 4100 3525 3541 
Q 3525 3141 3298 2862 
Q 3072 2584 2669 2484 
Q 3125 2378 3379 2068 
Q 3634 1759 3634 1313 
Q 3634 634 3220 271 
Q 2806 -91 2034 -91 
Q 1263 -91 848 271 
Q 434 634 434 1313 
Q 434 1759 690 2068 
Q 947 2378 1403 2484 
z
M 1172 3481 
Q 1172 3119 1398 2916 
Q 1625 2713 2034 2713 
Q 2441 2713 2670 2916 
Q 2900 3119 2900 3481 
Q 2900 3844 2670 4047 
Q 2441 4250 2034 4250 
Q 1625 4250 1398 4047 
Q 1172 3844 1172 3481 
z
" transform="scale(0.015625)"/>
       </defs>
       <use xlink:href="#DejaVuSans-32"/>
       <use xlink:href="#DejaVuSans-38" x="63.623047"/>
       <use xlink:href="#DejaVuSans-2e" x="127.246094"/>
       <use xlink:href="#DejaVuSans-30" x="159.033203"/>
      </g>
     </g>
    </g>
    <g id="ytick_3">
     <g id="line2d_23">
      <path d="M 43.755 134.615846 
L 458.365 134.615846 
" clip-path="url(#p9ee2fe2bca)" style="fill: none; stroke: #b0b0b0; stroke-width: 0.8; stroke-linecap: square"/>
     </g>
     <g id="line2d_24">
      <g>
       <use xlink:href="#m2ad5170ed2" x="43.755" y="134.615846" style="stroke: #000000; stroke-width: 0.8"/>
      </g>
     </g>
     <g id="text_13">
      <!-- 30.0 -->
      <g transform="translate(18.9425 137.655221) scale(0.08 -0.08)">
       <use xlink:href="#DejaVuSans-33"/>
       <use xlink:href="#DejaVuSans-30" x="63.623047"/>
       <use xlink:href="#DejaVuSans-2e" x="127.246094"/>
       <use xlink:href="#DejaVuSans-30" x="159.033203"/>
      </g>
     </g>
    </g>
    <g id="ytick_4">
     <g id="line2d_25">
      <path d="M 43.755 113.886434 
L 458.365 113.886434 
" clip-path="url(#p9ee2fe2bca)" style="fill: none; stroke: #b0b0b0; stroke-width: 0.8; stroke-linecap: square"/>
     </g>
     <g id="line2d_26">
      <g>
       <use xlink:href="#m2ad5170ed2" x="43.755" y="113.886434" style="stroke: #000000; stroke-width: 0.8"/>
      </g>
     </g>
     <g id="text_14">
      <!-- 32.0 -->
      <g transform="translate(18.9425 116.925809) scale(0.08 -0.08)">
       <use xlink:href="#DejaVuSans-33"/>
       <use xlink:href="#DejaVuSans-32" x="63.623047"/>
       <use xlink:href="#DejaVuSans-2e" x="127.246094"/>
       <use xlink:href="#DejaVuSans-30" x="159.033203"/>
      </g>
     </g>
    </g>
    <g id="ytick_5">
     <g id="line2d_27">
      <path d="M 43.755 93.157022 
L 458.365 93.157022 
" clip-path="url(#p9ee2fe2bca)" style="fill: none; stroke: #b0b0b0; stroke-width: 0.8; stroke-linecap: square"/>
     </g>
     <g id="line2d_28">
      <g>
       <use xlink:href="#m2ad5170ed2" x="43.755" y="93.157022" style="stroke: #000000; stroke-width: 0.8"/>
      </g>
     </g>
     <g id="text_15">
      <!-- 34.0 -->
      <g transform="translate(18.9425 96.196397) scale(0.08 -0.08)">
       <use xlink:href="#DejaVuSans-33"/>
       <use xlink:href="#DejaVuSans-34" x="63.623047"/>
       <use xlink:href="#DejaVuSans-2e" x="127.246094"/>
       <use xlink:href="#DejaVuSans-30" x="159.033203"/>
      </g>
     </g>
    </g>
    <g id="ytick_6">
     <g id="line2d_29">
      <path d="M 43.755 72.42761 
L 458.365 72.42761 
" clip-path="url(#p9ee2fe2bca)" style="fill: none; stroke: #b0b0b0; stroke-width: 0.8; stroke-linecap: square"/>
     </g>
     <g id="line2d_30">
      <g>
       <use xlink:href="#m2ad5170ed2" x="43.755" y="72.42761" style="stroke: #000000; stroke-width: 0.8"/>
      </g>
     </g>
     <g id="text_16">
      <!-- 36.0 -->
      <g transform="translate(18.9425 75.466985) scale(0.08 -0.08)">
       <use xlink:href="#DejaVuSans-33"/>
       <use xlink:href="#DejaVuSans-36" x="63.623047"/>
       <use xlink:href="#DejaVuSans-2e" x="127.246094"/>
       <use xlink:href="#DejaVuSans-30" x="159.033203"/>
      </g>
     </g>
    </g>
    <g id="ytick_7">
     <g id="line2d_31">
      <path d="M 43.755 51.698199 
L 458.365 51.698199 
" clip-path="url(#p9ee2fe2bca)" style="fill: none; stroke: #b0b0b0; stroke-width: 0.8; stroke-linecap: square"/>
     </g>
     <g id="line2d_32">
      <g>
       <use xlink:href="#m2ad5170ed2" x="43.755" y="51.698199" style="stroke: #000000; stroke-width: 0.8"/>
      </g>
     </g>
     <g id="text_17">
      <!-- 38.0 -->
      <g transform="translate(18.9425 54.737574) scale(0.08 -0.08)">
       <use xlink:href="#DejaVuSans-33"/>
       <use xlink:href="#DejaVuSans-38" x="63.623047"/>
       <use xlink:href="#DejaVuSans-2e" x="127.246094"/>
       <use xlink:href="#DejaVuSans-30" x="159.033203"/>
      </g>
     </g>
    </g>
    <g id="ytick_8">
     <g id="line2d_33">
      <path d="M 43.755 30.968787 
L 458.365 30.968787 
" clip-path="url(#p9ee2fe2bca)" style="fill: none; stroke: #b0b0b0; stroke-width: 0.8; stroke-linecap: square"/>
     </g>
     <g id="line2d_34">
      <g>
       <use xlink:href="#m2ad5170ed2" x="43.755" y="30.968787" style="stroke: #000000; stroke-width: 0.8"/>
      </g>
     </g>
     <g id="text_18">
      <!-- 40.0 -->
      <g transform="translate(18.9425 34.008162) scale(0.08 -0.08)">
       <use xlink:href="#DejaVuSans-34"/>
       <use xlink:href="#DejaVuSans-30" x="63.623047"/>
       <use xlink:href="#DejaVuSans-2e" x="127.246094"/>
       <use xlink:href="#DejaVuSans-30" x="159.033203"/>
      </g>
     </g>
    </g>
    <g id="ytick_9">
     <g id="line2d_35">
      <path d="M 43.755 10.239375 
L 458.365 10.239375 
" clip-path="url(#p9ee2fe2bca)" style="fill: none; stroke: #b0b0b0; stroke-width: 0.8; stroke-linecap: square"/>
     </g>
     <g id="line2d_36">
      <g>
       <use xlink:href="#m2ad5170ed2" x="43.755" y="10.239375" style="stroke: #000000; stroke-width: 0.8"/>
      </g>
     </g>
     <g id="text_19">
      <!-- 42.0 -->
      <g transform="translate(18.9425 13.27875) scale(0.08 -0.08)">
       <use xlink:href="#DejaVuSans-34"/>
       <use xlink:href="#DejaVuSans-32" x="63.623047"/>
       <use xlink:href="#DejaVuSans-2e" x="127.246094"/>
       <use xlink:href="#DejaVuSans-30" x="159.033203"/>
      </g>
     </g>
    </g>
    <g id="text_20">
     <!-- PSNR (dB) -->
     <g transform="translate(13.27875 118.73875) rotate(-90) scale(0.08 -0.08)">
      <defs>
       <path id="DejaVuSans-50" d="M 1259 4147 
L 1259 2394 
L 2053 2394 
Q 2494 2394 2734 2622 
Q 2975 2850 2975 3272 
Q 2975 3691 2734 3919 
Q 2494 4147 2053 4147 
L 1259 4147 
z
M 628 4666 
L 2053 4666 
Q 2838 4666 3239 4311 
Q 3641 3956 3641 3272 
Q 3641 2581 3239 2228 
Q 2838 1875 2053 1875 
L 1259 1875 
L 1259 0 
L 628 0 
L 628 4666 
z
" transform="scale(0.015625)"/>
       <path id="DejaVuSans-53" d="M 3425 4513 
L 3425 3897 
Q 3066 4069 2747 4153 
Q 2428 4238 2131 4238 
Q 1616 4238 1336 4038 
Q 1056 3838 1056 3469 
Q 1056 3159 1242 3001 
Q 1428 2844 1947 2747 
L 2328 2669 
Q 3034 2534 3370 2195 
Q 3706 1856 3706 1288 
Q 3706 609 3251 259 
Q 2797 -91 1919 -91 
Q 1588 -91 1214 -16 
Q 841 59 441 206 
L 441 856 
Q 825 641 1194 531 
Q 1563 422 1919 422 
Q 2459 422 2753 634 
Q 3047 847 3047 1241 
Q 3047 1584 2836 1778 
Q 2625 1972 2144 2069 
L 1759 2144 
Q 1053 2284 737 2584 
Q 422 2884 422 3419 
Q 422 4038 858 4394 
Q 1294 4750 2059 4750 
Q 2388 4750 2728 4690 
Q 3069 4631 3425 4513 
z
" transform="scale(0.015625)"/>
       <path id="DejaVuSans-4e" d="M 628 4666 
L 1478 4666 
L 3547 763 
L 3547 4666 
L 4159 4666 
L 4159 0 
L 3309 0 
L 1241 3903 
L 1241 0 
L 628 0 
L 628 4666 
z
" transform="scale(0.015625)"/>
       <path id="DejaVuSans-52" d="M 2841 2188 
Q 3044 2119 3236 1894 
Q 3428 1669 3622 1275 
L 4263 0 
L 3584 0 
L 2988 1197 
Q 2756 1666 2539 1819 
Q 2322 1972 1947 1972 
L 1259 1972 
L 1259 0 
L 628 0 
L 628 4666 
L 2053 4666 
Q 2853 4666 3247 4331 
Q 3641 3997 3641 3322 
Q 3641 2881 3436 2590 
Q 3231 2300 2841 2188 
z
M 1259 4147 
L 1259 2491 
L 2053 2491 
Q 2509 2491 2742 2702 
Q 2975 2913 2975 3322 
Q 2975 3731 2742 3939 
Q 2509 4147 2053 4147 
L 1259 4147 
z
" transform="scale(0.015625)"/>
       <path id="DejaVuSans-64" d="M 2906 2969 
L 2906 4863 
L 3481 4863 
L 3481 0 
L 2906 0 
L 2906 525 
Q 2725 213 2448 61 
Q 2172 -91 1784 -91 
Q 1150 -91 751 415 
Q 353 922 353 1747 
Q 353 2572 751 3078 
Q 1150 3584 1784 3584 
Q 2172 3584 2448 3432 
Q 2725 3281 2906 2969 
z
M 947 1747 
Q 947 1113 1208 752 
Q 1469 391 1925 391 
Q 2381 391 2643 752 
Q 2906 1113 2906 1747 
Q 2906 2381 2643 2742 
Q 2381 3103 1925 3103 
Q 1469 3103 1208 2742 
Q 947 2381 947 1747 
z
" transform="scale(0.015625)"/>
       <path id="DejaVuSans-42" d="M 1259 2228 
L 1259 519 
L 2272 519 
Q 2781 519 3026 730 
Q 3272 941 3272 1375 
Q 3272 1813 3026 2020 
Q 2781 2228 2272 2228 
L 1259 2228 
z
M 1259 4147 
L 1259 2741 
L 2194 2741 
Q 2656 2741 2882 2914 
Q 3109 3088 3109 3444 
Q 3109 3797 2882 3972 
Q 2656 4147 2194 4147 
L 1259 4147 
z
M 628 4666 
L 2241 4666 
Q 2963 4666 3353 4366 
Q 3744 4066 3744 3513 
Q 3744 3084 3544 2831 
Q 3344 2578 2956 2516 
Q 3422 2416 3680 2098 
Q 3938 1781 3938 1306 
Q 3938 681 3513 340 
Q 3088 0 2303 0 
L 628 0 
L 628 4666 
z
" transform="scale(0.015625)"/>
      </defs>
      <use xlink:href="#DejaVuSans-50"/>
      <use xlink:href="#DejaVuSans-53" x="60.302734"/>
      <use xlink:href="#DejaVuSans-4e" x="123.779297"/>
      <use xlink:href="#DejaVuSans-52" x="198.583984"/>
      <use xlink:href="#DejaVuSans-20" x="268.066406"/>
      <use xlink:href="#DejaVuSans-28" x="299.853516"/>
      <use xlink:href="#DejaVuSans-64" x="338.867188"/>
      <use xlink:href="#DejaVuSans-42" x="402.34375"/>
      <use xlink:href="#DejaVuSans-29" x="470.947266"/>
     </g>
    </g>
   </g>
   <g id="line2d_37">
    <path d="M 71.085751 152.072644 
L 75.312253 146.74999 
L 100.684148 124.837752 
L 139.431876 101.259131 
L 204.555697 76.364808 
L 300.912583 51.711169 
L 441.368483 26.319783 
" clip-path="url(#p9ee2fe2bca)" style="fill: none; stroke: #ff4500; stroke-width: 0.75; stroke-linecap: square"/>
    <defs>
     <path id="m9f5a19c014" d="M 0 1.5 
C 0.397805 1.5 0.77937 1.341951 1.06066 1.06066 
C 1.341951 0.77937 1.5 0.397805 1.5 0 
C 1.5 -0.397805 1.341951 -0.77937 1.06066 -1.06066 
C 0.77937 -1.341951 0.397805 -1.5 0 -1.5 
C -0.397805 -1.5 -0.77937 -1.341951 -1.06066 -1.06066 
C -1.341951 -0.77937 -1.5 -0.397805 -1.5 0 
C -1.5 0.397805 -1.341951 0.77937 -1.06066 1.06066 
C -0.77937 1.341951 -0.397805 1.5 0 1.5 
z
" style="stroke: #ff4500"/>
    </defs>
    <g clip-path="url(#p9ee2fe2bca)">
     <use xlink:href="#m9f5a19c014" x="71.085751" y="152.072644" style="fill: #ff4500; stroke: #ff4500"/>
     <use xlink:href="#m9f5a19c014" x="75.312253" y="146.74999" style="fill: #ff4500; stroke: #ff4500"/>
     <use xlink:href="#m9f5a19c014" x="100.684148" y="124.837752" style="fill: #ff4500; stroke: #ff4500"/>
     <use xlink:href="#m9f5a19c014" x="139.431876" y="101.259131" style="fill: #ff4500; stroke: #ff4500"/>
     <use xlink:href="#m9f5a19c014" x="204.555697" y="76.364808" style="fill: #ff4500; stroke: #ff4500"/>
     <use xlink:href="#m9f5a19c014" x="300.912583" y="51.711169" style="fill: #ff4500; stroke: #ff4500"/>
     <use xlink:href="#m9f5a19c014" x="441.368483" y="26.319783" style="fill: #ff4500; stroke: #ff4500"/>
    </g>
   </g>
   <g id="line2d_38">
    <path d="M 50.444799 174.052224 
L 59.650699 148.281199 
L 78.459241 118.087699 
L 111.345968 84.269558 
L 162.181979 49.004547 
L 234.249745 15.640705 
L 289.705969 -1 
" clip-path="url(#p9ee2fe2bca)" style="fill: none; stroke: #00ffff; stroke-width: 0.75; stroke-linecap: square"/>
   </g>
   <g id="line2d_39">
    <path d="M 66.89607 151.941242 
L 73.008288 143.41336 
L 78.588615 136.47267 
L 83.937475 130.397631 
L 89.243824 124.881548 
L 94.367576 119.663506 
L 99.767483 114.550218 
L 105.032325 109.483258 
L 110.35675 104.72963 
L 115.01037 101.059561 
L 119.853449 97.233835 
L 125.065403 93.450724 
L 130.036015 89.75554 
L 135.985051 85.969621 
L 142.312501 81.712641 
L 163.825432 68.602554 
L 193.812287 53.996476 
L 242.210439 35.560847 
L 332.844652 12.734692 
" clip-path="url(#p9ee2fe2bca)" style="fill: none; stroke: #808080; stroke-width: 0.75; stroke-linecap: square"/>
   </g>
   <g id="line2d_40">
    <path d="M 65.586513 199.085405 
L 75.997283 170.091846 
L 85.52461 154.907386 
L 93.941127 144.547212 
L 101.787176 136.847054 
L 108.920496 130.694737 
L 115.714145 125.254808 
L 121.34895 121.060601 
L 127.636401 116.945625 
L 133.192376 113.278515 
L 138.955384 109.747851 
L 146.145106 105.699191 
L 155.047822 101.088692 
L 166.148477 95.306721 
L 178.881036 89.070269 
L 198.918549 80.315137 
L 227.251155 69.019026 
L 275.758849 52.609 
L 379.523953 25.1992 
" clip-path="url(#p9ee2fe2bca)" style="fill: none; stroke: #9acd32; stroke-width: 0.75; stroke-linecap: square"/>
   </g>
   <g id="line2d_41">
    <path d="M 280.410712 33.124635 
L 162.041307 75.736863 
L 122.558507 98.443424 
L 102.869367 112.956304 
L 91.06887 123.478185 
L 83.105916 131.498459 
L 77.500567 137.765507 
L 73.228124 142.993269 
L 69.986657 147.320627 
L 67.388629 151.027421 
L 65.232365 154.316829 
L 63.416776 157.453067 
L 61.96186 159.963049 
L 60.603348 162.42442 
L 59.49873 164.48433 
L 58.452356 166.509642 
L 57.650588 168.224188 
L 56.830577 169.998516 
L 56.173413 171.510232 
" clip-path="url(#p9ee2fe2bca)" style="fill: none; stroke: #000000; stroke-width: 0.75; stroke-linecap: square"/>
   </g>
   <g id="line2d_42">
    <path d="M 56.715847 159.682506 
L 64.376203 142.941779 
L 75.330328 124.539672 
L 90.976735 105.198918 
L 109.765612 87.70245 
L 136.432755 64.723023 
L 168.056285 45.646783 
L 207.646786 25.197035 
" clip-path="url(#p9ee2fe2bca)" style="fill: none; stroke-dasharray: 2.775,1.2; stroke-dashoffset: 0; stroke: #da70d6; stroke-width: 0.75"/>
   </g>
   <g id="line2d_43">
    <path d="M 55.056791 155.578963 
L 57.858835 146.26891 
L 60.582727 139.106234 
L 71.927664 118.990763 
L 87.195625 99.66148 
L 107.33989 81.731162 
L 122.690886 70.908301 
L 153.860971 53.352424 
" clip-path="url(#p9ee2fe2bca)" style="fill: none; stroke-dasharray: 2.775,1.2; stroke-dashoffset: 0; stroke: #008000; stroke-width: 0.75"/>
   </g>
   <g id="line2d_44">
    <path d="M 55.859936 166.655044 
L 62.365799 153.086522 
L 72.166435 138.586407 
L 87.22773 121.379211 
L 107.736797 103.976502 
L 139.211706 78.844169 
L 177.137581 57.948822 
L 224.728861 34.893753 
" clip-path="url(#p9ee2fe2bca)" style="fill: none; stroke-dasharray: 2.775,1.2; stroke-dashoffset: 0; stroke: #ffa500; stroke-width: 0.75"/>
   </g>
   <g id="line2d_45">
    <path d="M 53.58685 179.837705 
L 62.306217 164.185986 
L 73.313982 151.054616 
L 137.169753 111.11414 
" clip-path="url(#p9ee2fe2bca)" style="fill: none; stroke: #dda0dd; stroke-width: 0.75; stroke-linecap: square"/>
    <defs>
     <path id="m48095f66b1" d="M 0 1.5 
C 0.397805 1.5 0.77937 1.341951 1.06066 1.06066 
C 1.341951 0.77937 1.5 0.397805 1.5 0 
C 1.5 -0.397805 1.341951 -0.77937 1.06066 -1.06066 
C 0.77937 -1.341951 0.397805 -1.5 0 -1.5 
C -0.397805 -1.5 -0.77937 -1.341951 -1.06066 -1.06066 
C -1.341951 -0.77937 -1.5 -0.397805 -1.5 0 
C -1.5 0.397805 -1.341951 0.77937 -1.06066 1.06066 
C -0.77937 1.341951 -0.397805 1.5 0 1.5 
z
" style="stroke: #dda0dd"/>
    </defs>
    <g clip-path="url(#p9ee2fe2bca)">
     <use xlink:href="#m48095f66b1" x="53.58685" y="179.837705" style="fill: #dda0dd; stroke: #dda0dd"/>
     <use xlink:href="#m48095f66b1" x="62.306217" y="164.185986" style="fill: #dda0dd; stroke: #dda0dd"/>
     <use xlink:href="#m48095f66b1" x="73.313982" y="151.054616" style="fill: #dda0dd; stroke: #dda0dd"/>
     <use xlink:href="#m48095f66b1" x="137.169753" y="111.11414" style="fill: #dda0dd; stroke: #dda0dd"/>
    </g>
   </g>
   <g id="patch_3">
    <path d="M 43.755 186.439375 
L 43.755 10.239375 
" style="fill: none; stroke: #000000; stroke-width: 0.8; stroke-linejoin: miter; stroke-linecap: square"/>
   </g>
   <g id="patch_4">
    <path d="M 458.365 186.439375 
L 458.365 10.239375 
" style="fill: none; stroke: #000000; stroke-width: 0.8; stroke-linejoin: miter; stroke-linecap: square"/>
   </g>
   <g id="patch_5">
    <path d="M 43.755 186.439375 
L 458.365 186.439375 
" style="fill: none; stroke: #000000; stroke-width: 0.8; stroke-linejoin: miter; stroke-linecap: square"/>
   </g>
   <g id="patch_6">
    <path d="M 43.755 10.239375 
L 458.365 10.239375 
" style="fill: none; stroke: #000000; stroke-width: 0.8; stroke-linejoin: miter; stroke-linecap: square"/>
   </g>
   <g id="legend_1">
    <g id="patch_7">
     <path d="M 228.685 182.439375 
L 452.765 182.439375 
Q 454.365 182.439375 454.365 180.839375 
L 454.365 122.606875 
Q 454.365 121.006875 452.765 121.006875 
L 228.685 121.006875 
Q 227.085 121.006875 227.085 122.606875 
L 227.085 180.839375 
Q 227.085 182.439375 228.685 182.439375 
z
" style="fill: #ffffff; opacity: 0.8; stroke: #cccccc; stroke-linejoin: miter"/>
    </g>
    <g id="line2d_46">
     <path d="M 230.285 127.805625 
L 238.285 127.805625 
L 246.285 127.805625 
" style="fill: none; stroke: #ff4500; stroke-width: 0.75; stroke-linecap: square"/>
     <g>
      <use xlink:href="#m9f5a19c014" x="238.285" y="127.805625" style="fill: #ff4500; stroke: #ff4500"/>
     </g>
    </g>
    <g id="text_21">
     <!-- NIF (Ours) -->
     <g transform="translate(252.685 130.605625) scale(0.08 -0.08)">
      <defs>
       <path id="DejaVuSans-49" d="M 628 4666 
L 1259 4666 
L 1259 0 
L 628 0 
L 628 4666 
z
" transform="scale(0.015625)"/>
       <path id="DejaVuSans-46" d="M 628 4666 
L 3309 4666 
L 3309 4134 
L 1259 4134 
L 1259 2759 
L 3109 2759 
L 3109 2228 
L 1259 2228 
L 1259 0 
L 628 0 
L 628 4666 
z
" transform="scale(0.015625)"/>
       <path id="DejaVuSans-4f" d="M 2522 4238 
Q 1834 4238 1429 3725 
Q 1025 3213 1025 2328 
Q 1025 1447 1429 934 
Q 1834 422 2522 422 
Q 3209 422 3611 934 
Q 4013 1447 4013 2328 
Q 4013 3213 3611 3725 
Q 3209 4238 2522 4238 
z
M 2522 4750 
Q 3503 4750 4090 4092 
Q 4678 3434 4678 2328 
Q 4678 1225 4090 567 
Q 3503 -91 2522 -91 
Q 1538 -91 948 565 
Q 359 1222 359 2328 
Q 359 3434 948 4092 
Q 1538 4750 2522 4750 
z
" transform="scale(0.015625)"/>
       <path id="DejaVuSans-75" d="M 544 1381 
L 544 3500 
L 1119 3500 
L 1119 1403 
Q 1119 906 1312 657 
Q 1506 409 1894 409 
Q 2359 409 2629 706 
Q 2900 1003 2900 1516 
L 2900 3500 
L 3475 3500 
L 3475 0 
L 2900 0 
L 2900 538 
Q 2691 219 2414 64 
Q 2138 -91 1772 -91 
Q 1169 -91 856 284 
Q 544 659 544 1381 
z
M 1991 3584 
L 1991 3584 
z
" transform="scale(0.015625)"/>
      </defs>
      <use xlink:href="#DejaVuSans-4e"/>
      <use xlink:href="#DejaVuSans-49" x="74.804688"/>
      <use xlink:href="#DejaVuSans-46" x="104.296875"/>
      <use xlink:href="#DejaVuSans-20" x="161.816406"/>
      <use xlink:href="#DejaVuSans-28" x="193.603516"/>
      <use xlink:href="#DejaVuSans-4f" x="232.617188"/>
      <use xlink:href="#DejaVuSans-75" x="311.328125"/>
      <use xlink:href="#DejaVuSans-72" x="374.707031"/>
      <use xlink:href="#DejaVuSans-73" x="415.820312"/>
      <use xlink:href="#DejaVuSans-29" x="467.919922"/>
     </g>
    </g>
    <g id="line2d_47">
     <path d="M 230.285 139.548125 
L 238.285 139.548125 
L 246.285 139.548125 
" style="fill: none; stroke: #00ffff; stroke-width: 0.75; stroke-linecap: square"/>
    </g>
    <g id="text_22">
     <!-- BPG -->
     <g transform="translate(252.685 142.348125) scale(0.08 -0.08)">
      <defs>
       <path id="DejaVuSans-47" d="M 3809 666 
L 3809 1919 
L 2778 1919 
L 2778 2438 
L 4434 2438 
L 4434 434 
Q 4069 175 3628 42 
Q 3188 -91 2688 -91 
Q 1594 -91 976 548 
Q 359 1188 359 2328 
Q 359 3472 976 4111 
Q 1594 4750 2688 4750 
Q 3144 4750 3555 4637 
Q 3966 4525 4313 4306 
L 4313 3634 
Q 3963 3931 3569 4081 
Q 3175 4231 2741 4231 
Q 1884 4231 1454 3753 
Q 1025 3275 1025 2328 
Q 1025 1384 1454 906 
Q 1884 428 2741 428 
Q 3075 428 3337 486 
Q 3600 544 3809 666 
z
" transform="scale(0.015625)"/>
      </defs>
      <use xlink:href="#DejaVuSans-42"/>
      <use xlink:href="#DejaVuSans-50" x="68.603516"/>
      <use xlink:href="#DejaVuSans-47" x="128.90625"/>
     </g>
    </g>
    <g id="line2d_48">
     <path d="M 230.285 151.290625 
L 238.285 151.290625 
L 246.285 151.290625 
" style="fill: none; stroke: #808080; stroke-width: 0.75; stroke-linecap: square"/>
    </g>
    <g id="text_23">
     <!-- WebP -->
     <g transform="translate(252.685 154.090625) scale(0.08 -0.08)">
      <defs>
       <path id="DejaVuSans-57" d="M 213 4666 
L 850 4666 
L 1831 722 
L 2809 4666 
L 3519 4666 
L 4500 722 
L 5478 4666 
L 6119 4666 
L 4947 0 
L 4153 0 
L 3169 4050 
L 2175 0 
L 1381 0 
L 213 4666 
z
" transform="scale(0.015625)"/>
      </defs>
      <use xlink:href="#DejaVuSans-57"/>
      <use xlink:href="#DejaVuSans-65" x="93.001953"/>
      <use xlink:href="#DejaVuSans-62" x="154.525391"/>
      <use xlink:href="#DejaVuSans-50" x="218.001953"/>
     </g>
    </g>
    <g id="line2d_49">
     <path d="M 230.285 163.033125 
L 238.285 163.033125 
L 246.285 163.033125 
" style="fill: none; stroke: #9acd32; stroke-width: 0.75; stroke-linecap: square"/>
    </g>
    <g id="text_24">
     <!-- JPEG -->
     <g transform="translate(252.685 165.833125) scale(0.08 -0.08)">
      <defs>
       <path id="DejaVuSans-4a" d="M 628 4666 
L 1259 4666 
L 1259 325 
Q 1259 -519 939 -900 
Q 619 -1281 -91 -1281 
L -331 -1281 
L -331 -750 
L -134 -750 
Q 284 -750 456 -515 
Q 628 -281 628 325 
L 628 4666 
z
" transform="scale(0.015625)"/>
       <path id="DejaVuSans-45" d="M 628 4666 
L 3578 4666 
L 3578 4134 
L 1259 4134 
L 1259 2753 
L 3481 2753 
L 3481 2222 
L 1259 2222 
L 1259 531 
L 3634 531 
L 3634 0 
L 628 0 
L 628 4666 
z
" transform="scale(0.015625)"/>
      </defs>
      <use xlink:href="#DejaVuSans-4a"/>
      <use xlink:href="#DejaVuSans-50" x="29.492188"/>
      <use xlink:href="#DejaVuSans-45" x="89.794922"/>
      <use xlink:href="#DejaVuSans-47" x="152.978516"/>
     </g>
    </g>
    <g id="line2d_50">
     <path d="M 230.285 174.775625 
L 238.285 174.775625 
L 246.285 174.775625 
" style="fill: none; stroke: #000000; stroke-width: 0.75; stroke-linecap: square"/>
    </g>
    <g id="text_25">
     <!-- JPEG2000 -->
     <g transform="translate(252.685 177.575625) scale(0.08 -0.08)">
      <use xlink:href="#DejaVuSans-4a"/>
      <use xlink:href="#DejaVuSans-50" x="29.492188"/>
      <use xlink:href="#DejaVuSans-45" x="89.794922"/>
      <use xlink:href="#DejaVuSans-47" x="152.978516"/>
      <use xlink:href="#DejaVuSans-32" x="230.46875"/>
      <use xlink:href="#DejaVuSans-30" x="294.091797"/>
      <use xlink:href="#DejaVuSans-30" x="357.714844"/>
      <use xlink:href="#DejaVuSans-30" x="421.337891"/>
     </g>
    </g>
    <g id="line2d_51">
     <path d="M 309.24 127.805625 
L 317.24 127.805625 
L 325.24 127.805625 
" style="fill: none; stroke-dasharray: 2.775,1.2; stroke-dashoffset: 0; stroke: #da70d6; stroke-width: 0.75"/>
    </g>
    <g id="text_26">
     <!-- Ballè (Hyperprior) [2017] -->
     <g transform="translate(331.64 130.605625) scale(0.08 -0.08)">
      <defs>
       <path id="DejaVuSans-61" d="M 2194 1759 
Q 1497 1759 1228 1600 
Q 959 1441 959 1056 
Q 959 750 1161 570 
Q 1363 391 1709 391 
Q 2188 391 2477 730 
Q 2766 1069 2766 1631 
L 2766 1759 
L 2194 1759 
z
M 3341 1997 
L 3341 0 
L 2766 0 
L 2766 531 
Q 2569 213 2275 61 
Q 1981 -91 1556 -91 
Q 1019 -91 701 211 
Q 384 513 384 1019 
Q 384 1609 779 1909 
Q 1175 2209 1959 2209 
L 2766 2209 
L 2766 2266 
Q 2766 2663 2505 2880 
Q 2244 3097 1772 3097 
Q 1472 3097 1187 3025 
Q 903 2953 641 2809 
L 641 3341 
Q 956 3463 1253 3523 
Q 1550 3584 1831 3584 
Q 2591 3584 2966 3190 
Q 3341 2797 3341 1997 
z
" transform="scale(0.015625)"/>
       <path id="DejaVuSans-e8" d="M 3597 1894 
L 3597 1613 
L 953 1613 
Q 991 1019 1311 708 
Q 1631 397 2203 397 
Q 2534 397 2845 478 
Q 3156 559 3463 722 
L 3463 178 
Q 3153 47 2828 -22 
Q 2503 -91 2169 -91 
Q 1331 -91 842 396 
Q 353 884 353 1716 
Q 353 2575 817 3079 
Q 1281 3584 2069 3584 
Q 2775 3584 3186 3129 
Q 3597 2675 3597 1894 
z
M 3022 2063 
Q 3016 2534 2758 2815 
Q 2500 3097 2075 3097 
Q 1594 3097 1305 2825 
Q 1016 2553 972 2059 
L 3022 2063 
z
M 1579 5119 
L 2460 3950 
L 1982 3950 
L 963 5119 
L 1579 5119 
z
" transform="scale(0.015625)"/>
       <path id="DejaVuSans-48" d="M 628 4666 
L 1259 4666 
L 1259 2753 
L 3553 2753 
L 3553 4666 
L 4184 4666 
L 4184 0 
L 3553 0 
L 3553 2222 
L 1259 2222 
L 1259 0 
L 628 0 
L 628 4666 
z
" transform="scale(0.015625)"/>
       <path id="DejaVuSans-79" d="M 2059 -325 
Q 1816 -950 1584 -1140 
Q 1353 -1331 966 -1331 
L 506 -1331 
L 506 -850 
L 844 -850 
Q 1081 -850 1212 -737 
Q 1344 -625 1503 -206 
L 1606 56 
L 191 3500 
L 800 3500 
L 1894 763 
L 2988 3500 
L 3597 3500 
L 2059 -325 
z
" transform="scale(0.015625)"/>
       <path id="DejaVuSans-6f" d="M 1959 3097 
Q 1497 3097 1228 2736 
Q 959 2375 959 1747 
Q 959 1119 1226 758 
Q 1494 397 1959 397 
Q 2419 397 2687 759 
Q 2956 1122 2956 1747 
Q 2956 2369 2687 2733 
Q 2419 3097 1959 3097 
z
M 1959 3584 
Q 2709 3584 3137 3096 
Q 3566 2609 3566 1747 
Q 3566 888 3137 398 
Q 2709 -91 1959 -91 
Q 1206 -91 779 398 
Q 353 888 353 1747 
Q 353 2609 779 3096 
Q 1206 3584 1959 3584 
z
" transform="scale(0.015625)"/>
       <path id="DejaVuSans-5b" d="M 550 4863 
L 1875 4863 
L 1875 4416 
L 1125 4416 
L 1125 -397 
L 1875 -397 
L 1875 -844 
L 550 -844 
L 550 4863 
z
" transform="scale(0.015625)"/>
       <path id="DejaVuSans-37" d="M 525 4666 
L 3525 4666 
L 3525 4397 
L 1831 0 
L 1172 0 
L 2766 4134 
L 525 4134 
L 525 4666 
z
" transform="scale(0.015625)"/>
       <path id="DejaVuSans-5d" d="M 1947 4863 
L 1947 -844 
L 622 -844 
L 622 -397 
L 1369 -397 
L 1369 4416 
L 622 4416 
L 622 4863 
L 1947 4863 
z
" transform="scale(0.015625)"/>
      </defs>
      <use xlink:href="#DejaVuSans-42"/>
      <use xlink:href="#DejaVuSans-61" x="68.603516"/>
      <use xlink:href="#DejaVuSans-6c" x="129.882812"/>
      <use xlink:href="#DejaVuSans-6c" x="157.666016"/>
      <use xlink:href="#DejaVuSans-e8" x="185.449219"/>
      <use xlink:href="#DejaVuSans-20" x="246.972656"/>
      <use xlink:href="#DejaVuSans-28" x="278.759766"/>
      <use xlink:href="#DejaVuSans-48" x="317.773438"/>
      <use xlink:href="#DejaVuSans-79" x="392.96875"/>
      <use xlink:href="#DejaVuSans-70" x="452.148438"/>
      <use xlink:href="#DejaVuSans-65" x="515.625"/>
      <use xlink:href="#DejaVuSans-72" x="577.148438"/>
      <use xlink:href="#DejaVuSans-70" x="618.261719"/>
      <use xlink:href="#DejaVuSans-72" x="681.738281"/>
      <use xlink:href="#DejaVuSans-69" x="722.851562"/>
      <use xlink:href="#DejaVuSans-6f" x="750.634766"/>
      <use xlink:href="#DejaVuSans-72" x="811.816406"/>
      <use xlink:href="#DejaVuSans-29" x="852.929688"/>
      <use xlink:href="#DejaVuSans-20" x="891.943359"/>
      <use xlink:href="#DejaVuSans-5b" x="923.730469"/>
      <use xlink:href="#DejaVuSans-32" x="962.744141"/>
      <use xlink:href="#DejaVuSans-30" x="1026.367188"/>
      <use xlink:href="#DejaVuSans-31" x="1089.990234"/>
      <use xlink:href="#DejaVuSans-37" x="1153.613281"/>
      <use xlink:href="#DejaVuSans-5d" x="1217.236328"/>
     </g>
    </g>
    <g id="line2d_52">
     <path d="M 309.24 139.548125 
L 317.24 139.548125 
L 325.24 139.548125 
" style="fill: none; stroke-dasharray: 2.775,1.2; stroke-dashoffset: 0; stroke: #008000; stroke-width: 0.75"/>
    </g>
    <g id="text_27">
     <!-- Xie [2021] -->
     <g transform="translate(331.64 142.348125) scale(0.08 -0.08)">
      <defs>
       <path id="DejaVuSans-58" d="M 403 4666 
L 1081 4666 
L 2241 2931 
L 3406 4666 
L 4084 4666 
L 2584 2425 
L 4184 0 
L 3506 0 
L 2194 1984 
L 872 0 
L 191 0 
L 1856 2491 
L 403 4666 
z
" transform="scale(0.015625)"/>
      </defs>
      <use xlink:href="#DejaVuSans-58"/>
      <use xlink:href="#DejaVuSans-69" x="68.505859"/>
      <use xlink:href="#DejaVuSans-65" x="96.289062"/>
      <use xlink:href="#DejaVuSans-20" x="157.8125"/>
      <use xlink:href="#DejaVuSans-5b" x="189.599609"/>
      <use xlink:href="#DejaVuSans-32" x="228.613281"/>
      <use xlink:href="#DejaVuSans-30" x="292.236328"/>
      <use xlink:href="#DejaVuSans-32" x="355.859375"/>
      <use xlink:href="#DejaVuSans-31" x="419.482422"/>
      <use xlink:href="#DejaVuSans-5d" x="483.105469"/>
     </g>
    </g>
    <g id="line2d_53">
     <path d="M 309.24 151.290625 
L 317.24 151.290625 
L 325.24 151.290625 
" style="fill: none; stroke-dasharray: 2.775,1.2; stroke-dashoffset: 0; stroke: #ffa500; stroke-width: 0.75"/>
    </g>
    <g id="text_28">
     <!-- Ballè (Factorized Prior) [2017] -->
     <g transform="translate(331.64 154.090625) scale(0.08 -0.08)">
      <defs>
       <path id="DejaVuSans-63" d="M 3122 3366 
L 3122 2828 
Q 2878 2963 2633 3030 
Q 2388 3097 2138 3097 
Q 1578 3097 1268 2742 
Q 959 2388 959 1747 
Q 959 1106 1268 751 
Q 1578 397 2138 397 
Q 2388 397 2633 464 
Q 2878 531 3122 666 
L 3122 134 
Q 2881 22 2623 -34 
Q 2366 -91 2075 -91 
Q 1284 -91 818 406 
Q 353 903 353 1747 
Q 353 2603 823 3093 
Q 1294 3584 2113 3584 
Q 2378 3584 2631 3529 
Q 2884 3475 3122 3366 
z
" transform="scale(0.015625)"/>
       <path id="DejaVuSans-7a" d="M 353 3500 
L 3084 3500 
L 3084 2975 
L 922 459 
L 3084 459 
L 3084 0 
L 275 0 
L 275 525 
L 2438 3041 
L 353 3041 
L 353 3500 
z
" transform="scale(0.015625)"/>
      </defs>
      <use xlink:href="#DejaVuSans-42"/>
      <use xlink:href="#DejaVuSans-61" x="68.603516"/>
      <use xlink:href="#DejaVuSans-6c" x="129.882812"/>
      <use xlink:href="#DejaVuSans-6c" x="157.666016"/>
      <use xlink:href="#DejaVuSans-e8" x="185.449219"/>
      <use xlink:href="#DejaVuSans-20" x="246.972656"/>
      <use xlink:href="#DejaVuSans-28" x="278.759766"/>
      <use xlink:href="#DejaVuSans-46" x="317.773438"/>
      <use xlink:href="#DejaVuSans-61" x="366.167969"/>
      <use xlink:href="#DejaVuSans-63" x="427.447266"/>
      <use xlink:href="#DejaVuSans-74" x="482.427734"/>
      <use xlink:href="#DejaVuSans-6f" x="521.636719"/>
      <use xlink:href="#DejaVuSans-72" x="582.818359"/>
      <use xlink:href="#DejaVuSans-69" x="623.931641"/>
      <use xlink:href="#DejaVuSans-7a" x="651.714844"/>
      <use xlink:href="#DejaVuSans-65" x="704.205078"/>
      <use xlink:href="#DejaVuSans-64" x="765.728516"/>
      <use xlink:href="#DejaVuSans-20" x="829.205078"/>
      <use xlink:href="#DejaVuSans-50" x="860.992188"/>
      <use xlink:href="#DejaVuSans-72" x="919.544922"/>
      <use xlink:href="#DejaVuSans-69" x="960.658203"/>
      <use xlink:href="#DejaVuSans-6f" x="988.441406"/>
      <use xlink:href="#DejaVuSans-72" x="1049.623047"/>
      <use xlink:href="#DejaVuSans-29" x="1090.736328"/>
      <use xlink:href="#DejaVuSans-20" x="1129.75"/>
      <use xlink:href="#DejaVuSans-5b" x="1161.537109"/>
      <use xlink:href="#DejaVuSans-32" x="1200.550781"/>
      <use xlink:href="#DejaVuSans-30" x="1264.173828"/>
      <use xlink:href="#DejaVuSans-31" x="1327.796875"/>
      <use xlink:href="#DejaVuSans-37" x="1391.419922"/>
      <use xlink:href="#DejaVuSans-5d" x="1455.042969"/>
     </g>
    </g>
    <g id="line2d_54">
     <path d="M 309.24 163.033125 
L 317.24 163.033125 
L 325.24 163.033125 
" style="fill: none; stroke: #dda0dd; stroke-width: 0.75; stroke-linecap: square"/>
     <g>
      <use xlink:href="#m48095f66b1" x="317.24" y="163.033125" style="fill: #dda0dd; stroke: #dda0dd"/>
     </g>
    </g>
    <g id="text_29">
     <!-- Strumpler basic [2021] -->
     <g transform="translate(331.64 165.833125) scale(0.08 -0.08)">
      <defs>
       <path id="DejaVuSans-6d" d="M 3328 2828 
Q 3544 3216 3844 3400 
Q 4144 3584 4550 3584 
Q 5097 3584 5394 3201 
Q 5691 2819 5691 2113 
L 5691 0 
L 5113 0 
L 5113 2094 
Q 5113 2597 4934 2840 
Q 4756 3084 4391 3084 
Q 3944 3084 3684 2787 
Q 3425 2491 3425 1978 
L 3425 0 
L 2847 0 
L 2847 2094 
Q 2847 2600 2669 2842 
Q 2491 3084 2119 3084 
Q 1678 3084 1418 2786 
Q 1159 2488 1159 1978 
L 1159 0 
L 581 0 
L 581 3500 
L 1159 3500 
L 1159 2956 
Q 1356 3278 1631 3431 
Q 1906 3584 2284 3584 
Q 2666 3584 2933 3390 
Q 3200 3197 3328 2828 
z
" transform="scale(0.015625)"/>
      </defs>
      <use xlink:href="#DejaVuSans-53"/>
      <use xlink:href="#DejaVuSans-74" x="63.476562"/>
      <use xlink:href="#DejaVuSans-72" x="102.685547"/>
      <use xlink:href="#DejaVuSans-75" x="143.798828"/>
      <use xlink:href="#DejaVuSans-6d" x="207.177734"/>
      <use xlink:href="#DejaVuSans-70" x="304.589844"/>
      <use xlink:href="#DejaVuSans-6c" x="368.066406"/>
      <use xlink:href="#DejaVuSans-65" x="395.849609"/>
      <use xlink:href="#DejaVuSans-72" x="457.373047"/>
      <use xlink:href="#DejaVuSans-20" x="498.486328"/>
      <use xlink:href="#DejaVuSans-62" x="530.273438"/>
      <use xlink:href="#DejaVuSans-61" x="593.75"/>
      <use xlink:href="#DejaVuSans-73" x="655.029297"/>
      <use xlink:href="#DejaVuSans-69" x="707.128906"/>
      <use xlink:href="#DejaVuSans-63" x="734.912109"/>
      <use xlink:href="#DejaVuSans-20" x="789.892578"/>
      <use xlink:href="#DejaVuSans-5b" x="821.679688"/>
      <use xlink:href="#DejaVuSans-32" x="860.693359"/>
      <use xlink:href="#DejaVuSans-30" x="924.316406"/>
      <use xlink:href="#DejaVuSans-32" x="987.939453"/>
      <use xlink:href="#DejaVuSans-31" x="1051.5625"/>
      <use xlink:href="#DejaVuSans-5d" x="1115.185547"/>
     </g>
    </g>
   </g>
  </g>
  <g id="axes_2">
   <g id="patch_8">
    <path d="M 43.755 396.679375 
L 458.365 396.679375 
L 458.365 220.479375 
L 43.755 220.479375 
L 43.755 396.679375 
z
" style="fill: none"/>
   </g>
   <g id="matplotlib.axis_3">
    <g id="xtick_10">
     <g id="line2d_55">
      <path d="M 43.755 396.679375 
L 43.755 220.479375 
" clip-path="url(#p7aa4cb1b8c)" style="fill: none; stroke: #b0b0b0; stroke-width: 0.8; stroke-linecap: square"/>
     </g>
     <g id="line2d_56">
      <g>
       <use xlink:href="#m62a7f54c9b" x="43.755" y="396.679375" style="stroke: #000000; stroke-width: 0.8"/>
      </g>
     </g>
     <g id="text_30">
      <!-- 0.0 -->
      <g transform="translate(37.39375 409.758125) scale(0.08 -0.08)">
       <use xlink:href="#DejaVuSans-30"/>
       <use xlink:href="#DejaVuSans-2e" x="63.623047"/>
       <use xlink:href="#DejaVuSans-30" x="95.410156"/>
      </g>
     </g>
    </g>
    <g id="xtick_11">
     <g id="line2d_57">
      <path d="M 93.113333 396.679375 
L 93.113333 220.479375 
" clip-path="url(#p7aa4cb1b8c)" style="fill: none; stroke: #b0b0b0; stroke-width: 0.8; stroke-linecap: square"/>
     </g>
     <g id="line2d_58">
      <g>
       <use xlink:href="#m62a7f54c9b" x="93.113333" y="396.679375" style="stroke: #000000; stroke-width: 0.8"/>
      </g>
     </g>
     <g id="text_31">
      <!-- 0.5 -->
      <g transform="translate(86.752083 409.758125) scale(0.08 -0.08)">
       <use xlink:href="#DejaVuSans-30"/>
       <use xlink:href="#DejaVuSans-2e" x="63.623047"/>
       <use xlink:href="#DejaVuSans-35" x="95.410156"/>
      </g>
     </g>
    </g>
    <g id="xtick_12">
     <g id="line2d_59">
      <path d="M 142.471667 396.679375 
L 142.471667 220.479375 
" clip-path="url(#p7aa4cb1b8c)" style="fill: none; stroke: #b0b0b0; stroke-width: 0.8; stroke-linecap: square"/>
     </g>
     <g id="line2d_60">
      <g>
       <use xlink:href="#m62a7f54c9b" x="142.471667" y="396.679375" style="stroke: #000000; stroke-width: 0.8"/>
      </g>
     </g>
     <g id="text_32">
      <!-- 1.0 -->
      <g transform="translate(136.110417 409.758125) scale(0.08 -0.08)">
       <use xlink:href="#DejaVuSans-31"/>
       <use xlink:href="#DejaVuSans-2e" x="63.623047"/>
       <use xlink:href="#DejaVuSans-30" x="95.410156"/>
      </g>
     </g>
    </g>
    <g id="xtick_13">
     <g id="line2d_61">
      <path d="M 191.83 396.679375 
L 191.83 220.479375 
" clip-path="url(#p7aa4cb1b8c)" style="fill: none; stroke: #b0b0b0; stroke-width: 0.8; stroke-linecap: square"/>
     </g>
     <g id="line2d_62">
      <g>
       <use xlink:href="#m62a7f54c9b" x="191.83" y="396.679375" style="stroke: #000000; stroke-width: 0.8"/>
      </g>
     </g>
     <g id="text_33">
      <!-- 1.5 -->
      <g transform="translate(185.46875 409.758125) scale(0.08 -0.08)">
       <use xlink:href="#DejaVuSans-31"/>
       <use xlink:href="#DejaVuSans-2e" x="63.623047"/>
       <use xlink:href="#DejaVuSans-35" x="95.410156"/>
      </g>
     </g>
    </g>
    <g id="xtick_14">
     <g id="line2d_63">
      <path d="M 241.188333 396.679375 
L 241.188333 220.479375 
" clip-path="url(#p7aa4cb1b8c)" style="fill: none; stroke: #b0b0b0; stroke-width: 0.8; stroke-linecap: square"/>
     </g>
     <g id="line2d_64">
      <g>
       <use xlink:href="#m62a7f54c9b" x="241.188333" y="396.679375" style="stroke: #000000; stroke-width: 0.8"/>
      </g>
     </g>
     <g id="text_34">
      <!-- 2.0 -->
      <g transform="translate(234.827083 409.758125) scale(0.08 -0.08)">
       <use xlink:href="#DejaVuSans-32"/>
       <use xlink:href="#DejaVuSans-2e" x="63.623047"/>
       <use xlink:href="#DejaVuSans-30" x="95.410156"/>
      </g>
     </g>
    </g>
    <g id="xtick_15">
     <g id="line2d_65">
      <path d="M 290.546667 396.679375 
L 290.546667 220.479375 
" clip-path="url(#p7aa4cb1b8c)" style="fill: none; stroke: #b0b0b0; stroke-width: 0.8; stroke-linecap: square"/>
     </g>
     <g id="line2d_66">
      <g>
       <use xlink:href="#m62a7f54c9b" x="290.546667" y="396.679375" style="stroke: #000000; stroke-width: 0.8"/>
      </g>
     </g>
     <g id="text_35">
      <!-- 2.5 -->
      <g transform="translate(284.185417 409.758125) scale(0.08 -0.08)">
       <use xlink:href="#DejaVuSans-32"/>
       <use xlink:href="#DejaVuSans-2e" x="63.623047"/>
       <use xlink:href="#DejaVuSans-35" x="95.410156"/>
      </g>
     </g>
    </g>
    <g id="xtick_16">
     <g id="line2d_67">
      <path d="M 339.905 396.679375 
L 339.905 220.479375 
" clip-path="url(#p7aa4cb1b8c)" style="fill: none; stroke: #b0b0b0; stroke-width: 0.8; stroke-linecap: square"/>
     </g>
     <g id="line2d_68">
      <g>
       <use xlink:href="#m62a7f54c9b" x="339.905" y="396.679375" style="stroke: #000000; stroke-width: 0.8"/>
      </g>
     </g>
     <g id="text_36">
      <!-- 3.0 -->
      <g transform="translate(333.54375 409.758125) scale(0.08 -0.08)">
       <use xlink:href="#DejaVuSans-33"/>
       <use xlink:href="#DejaVuSans-2e" x="63.623047"/>
       <use xlink:href="#DejaVuSans-30" x="95.410156"/>
      </g>
     </g>
    </g>
    <g id="xtick_17">
     <g id="line2d_69">
      <path d="M 389.263333 396.679375 
L 389.263333 220.479375 
" clip-path="url(#p7aa4cb1b8c)" style="fill: none; stroke: #b0b0b0; stroke-width: 0.8; stroke-linecap: square"/>
     </g>
     <g id="line2d_70">
      <g>
       <use xlink:href="#m62a7f54c9b" x="389.263333" y="396.679375" style="stroke: #000000; stroke-width: 0.8"/>
      </g>
     </g>
     <g id="text_37">
      <!-- 3.5 -->
      <g transform="translate(382.902083 409.758125) scale(0.08 -0.08)">
       <use xlink:href="#DejaVuSans-33"/>
       <use xlink:href="#DejaVuSans-2e" x="63.623047"/>
       <use xlink:href="#DejaVuSans-35" x="95.410156"/>
      </g>
     </g>
    </g>
    <g id="xtick_18">
     <g id="line2d_71">
      <path d="M 438.621667 396.679375 
L 438.621667 220.479375 
" clip-path="url(#p7aa4cb1b8c)" style="fill: none; stroke: #b0b0b0; stroke-width: 0.8; stroke-linecap: square"/>
     </g>
     <g id="line2d_72">
      <g>
       <use xlink:href="#m62a7f54c9b" x="438.621667" y="396.679375" style="stroke: #000000; stroke-width: 0.8"/>
      </g>
     </g>
     <g id="text_38">
      <!-- 4.0 -->
      <g transform="translate(432.260417 409.758125) scale(0.08 -0.08)">
       <use xlink:href="#DejaVuSans-34"/>
       <use xlink:href="#DejaVuSans-2e" x="63.623047"/>
       <use xlink:href="#DejaVuSans-30" x="95.410156"/>
      </g>
     </g>
    </g>
    <g id="text_39">
     <!-- bits per pixel (bpp) -->
     <g transform="translate(213.09375 421.500625) scale(0.08 -0.08)">
      <use xlink:href="#DejaVuSans-62"/>
      <use xlink:href="#DejaVuSans-69" x="63.476562"/>
      <use xlink:href="#DejaVuSans-74" x="91.259766"/>
      <use xlink:href="#DejaVuSans-73" x="130.46875"/>
      <use xlink:href="#DejaVuSans-20" x="182.568359"/>
      <use xlink:href="#DejaVuSans-70" x="214.355469"/>
      <use xlink:href="#DejaVuSans-65" x="277.832031"/>
      <use xlink:href="#DejaVuSans-72" x="339.355469"/>
      <use xlink:href="#DejaVuSans-20" x="380.46875"/>
      <use xlink:href="#DejaVuSans-70" x="412.255859"/>
      <use xlink:href="#DejaVuSans-69" x="475.732422"/>
      <use xlink:href="#DejaVuSans-78" x="503.515625"/>
      <use xlink:href="#DejaVuSans-65" x="559.570312"/>
      <use xlink:href="#DejaVuSans-6c" x="621.09375"/>
      <use xlink:href="#DejaVuSans-20" x="648.876953"/>
      <use xlink:href="#DejaVuSans-28" x="680.664062"/>
      <use xlink:href="#DejaVuSans-62" x="719.677734"/>
      <use xlink:href="#DejaVuSans-70" x="783.154297"/>
      <use xlink:href="#DejaVuSans-70" x="846.630859"/>
      <use xlink:href="#DejaVuSans-29" x="910.107422"/>
     </g>
    </g>
   </g>
   <g id="matplotlib.axis_4">
    <g id="ytick_10">
     <g id="line2d_73">
      <path d="M 43.755 379.059375 
L 458.365 379.059375 
" clip-path="url(#p7aa4cb1b8c)" style="fill: none; stroke: #b0b0b0; stroke-width: 0.8; stroke-linecap: square"/>
     </g>
     <g id="line2d_74">
      <g>
       <use xlink:href="#m2ad5170ed2" x="43.755" y="379.059375" style="stroke: #000000; stroke-width: 0.8"/>
      </g>
     </g>
     <g id="text_40">
      <!-- 10.0 -->
      <g transform="translate(18.9425 382.09875) scale(0.08 -0.08)">
       <use xlink:href="#DejaVuSans-31"/>
       <use xlink:href="#DejaVuSans-30" x="63.623047"/>
       <use xlink:href="#DejaVuSans-2e" x="127.246094"/>
       <use xlink:href="#DejaVuSans-30" x="159.033203"/>
      </g>
     </g>
    </g>
    <g id="ytick_11">
     <g id="line2d_75">
      <path d="M 43.755 357.034375 
L 458.365 357.034375 
" clip-path="url(#p7aa4cb1b8c)" style="fill: none; stroke: #b0b0b0; stroke-width: 0.8; stroke-linecap: square"/>
     </g>
     <g id="line2d_76">
      <g>
       <use xlink:href="#m2ad5170ed2" x="43.755" y="357.034375" style="stroke: #000000; stroke-width: 0.8"/>
      </g>
     </g>
     <g id="text_41">
      <!-- 12.5 -->
      <g transform="translate(18.9425 360.07375) scale(0.08 -0.08)">
       <use xlink:href="#DejaVuSans-31"/>
       <use xlink:href="#DejaVuSans-32" x="63.623047"/>
       <use xlink:href="#DejaVuSans-2e" x="127.246094"/>
       <use xlink:href="#DejaVuSans-35" x="159.033203"/>
      </g>
     </g>
    </g>
    <g id="ytick_12">
     <g id="line2d_77">
      <path d="M 43.755 335.009375 
L 458.365 335.009375 
" clip-path="url(#p7aa4cb1b8c)" style="fill: none; stroke: #b0b0b0; stroke-width: 0.8; stroke-linecap: square"/>
     </g>
     <g id="line2d_78">
      <g>
       <use xlink:href="#m2ad5170ed2" x="43.755" y="335.009375" style="stroke: #000000; stroke-width: 0.8"/>
      </g>
     </g>
     <g id="text_42">
      <!-- 15.0 -->
      <g transform="translate(18.9425 338.04875) scale(0.08 -0.08)">
       <use xlink:href="#DejaVuSans-31"/>
       <use xlink:href="#DejaVuSans-35" x="63.623047"/>
       <use xlink:href="#DejaVuSans-2e" x="127.246094"/>
       <use xlink:href="#DejaVuSans-30" x="159.033203"/>
      </g>
     </g>
    </g>
    <g id="ytick_13">
     <g id="line2d_79">
      <path d="M 43.755 312.984375 
L 458.365 312.984375 
" clip-path="url(#p7aa4cb1b8c)" style="fill: none; stroke: #b0b0b0; stroke-width: 0.8; stroke-linecap: square"/>
     </g>
     <g id="line2d_80">
      <g>
       <use xlink:href="#m2ad5170ed2" x="43.755" y="312.984375" style="stroke: #000000; stroke-width: 0.8"/>
      </g>
     </g>
     <g id="text_43">
      <!-- 17.5 -->
      <g transform="translate(18.9425 316.02375) scale(0.08 -0.08)">
       <use xlink:href="#DejaVuSans-31"/>
       <use xlink:href="#DejaVuSans-37" x="63.623047"/>
       <use xlink:href="#DejaVuSans-2e" x="127.246094"/>
       <use xlink:href="#DejaVuSans-35" x="159.033203"/>
      </g>
     </g>
    </g>
    <g id="ytick_14">
     <g id="line2d_81">
      <path d="M 43.755 290.959375 
L 458.365 290.959375 
" clip-path="url(#p7aa4cb1b8c)" style="fill: none; stroke: #b0b0b0; stroke-width: 0.8; stroke-linecap: square"/>
     </g>
     <g id="line2d_82">
      <g>
       <use xlink:href="#m2ad5170ed2" x="43.755" y="290.959375" style="stroke: #000000; stroke-width: 0.8"/>
      </g>
     </g>
     <g id="text_44">
      <!-- 20.0 -->
      <g transform="translate(18.9425 293.99875) scale(0.08 -0.08)">
       <use xlink:href="#DejaVuSans-32"/>
       <use xlink:href="#DejaVuSans-30" x="63.623047"/>
       <use xlink:href="#DejaVuSans-2e" x="127.246094"/>
       <use xlink:href="#DejaVuSans-30" x="159.033203"/>
      </g>
     </g>
    </g>
    <g id="ytick_15">
     <g id="line2d_83">
      <path d="M 43.755 268.934375 
L 458.365 268.934375 
" clip-path="url(#p7aa4cb1b8c)" style="fill: none; stroke: #b0b0b0; stroke-width: 0.8; stroke-linecap: square"/>
     </g>
     <g id="line2d_84">
      <g>
       <use xlink:href="#m2ad5170ed2" x="43.755" y="268.934375" style="stroke: #000000; stroke-width: 0.8"/>
      </g>
     </g>
     <g id="text_45">
      <!-- 22.5 -->
      <g transform="translate(18.9425 271.97375) scale(0.08 -0.08)">
       <use xlink:href="#DejaVuSans-32"/>
       <use xlink:href="#DejaVuSans-32" x="63.623047"/>
       <use xlink:href="#DejaVuSans-2e" x="127.246094"/>
       <use xlink:href="#DejaVuSans-35" x="159.033203"/>
      </g>
     </g>
    </g>
    <g id="ytick_16">
     <g id="line2d_85">
      <path d="M 43.755 246.909375 
L 458.365 246.909375 
" clip-path="url(#p7aa4cb1b8c)" style="fill: none; stroke: #b0b0b0; stroke-width: 0.8; stroke-linecap: square"/>
     </g>
     <g id="line2d_86">
      <g>
       <use xlink:href="#m2ad5170ed2" x="43.755" y="246.909375" style="stroke: #000000; stroke-width: 0.8"/>
      </g>
     </g>
     <g id="text_46">
      <!-- 25.0 -->
      <g transform="translate(18.9425 249.94875) scale(0.08 -0.08)">
       <use xlink:href="#DejaVuSans-32"/>
       <use xlink:href="#DejaVuSans-35" x="63.623047"/>
       <use xlink:href="#DejaVuSans-2e" x="127.246094"/>
       <use xlink:href="#DejaVuSans-30" x="159.033203"/>
      </g>
     </g>
    </g>
    <g id="ytick_17">
     <g id="line2d_87">
      <path d="M 43.755 224.884375 
L 458.365 224.884375 
" clip-path="url(#p7aa4cb1b8c)" style="fill: none; stroke: #b0b0b0; stroke-width: 0.8; stroke-linecap: square"/>
     </g>
     <g id="line2d_88">
      <g>
       <use xlink:href="#m2ad5170ed2" x="43.755" y="224.884375" style="stroke: #000000; stroke-width: 0.8"/>
      </g>
     </g>
     <g id="text_47">
      <!-- 27.5 -->
      <g transform="translate(18.9425 227.92375) scale(0.08 -0.08)">
       <use xlink:href="#DejaVuSans-32"/>
       <use xlink:href="#DejaVuSans-37" x="63.623047"/>
       <use xlink:href="#DejaVuSans-2e" x="127.246094"/>
       <use xlink:href="#DejaVuSans-35" x="159.033203"/>
      </g>
     </g>
    </g>
    <g id="text_48">
     <!-- MS-SSIM -->
     <g transform="translate(13.27875 325.723125) rotate(-90) scale(0.08 -0.08)">
      <defs>
       <path id="DejaVuSans-4d" d="M 628 4666 
L 1569 4666 
L 2759 1491 
L 3956 4666 
L 4897 4666 
L 4897 0 
L 4281 0 
L 4281 4097 
L 3078 897 
L 2444 897 
L 1241 4097 
L 1241 0 
L 628 0 
L 628 4666 
z
" transform="scale(0.015625)"/>
       <path id="DejaVuSans-2d" d="M 313 2009 
L 1997 2009 
L 1997 1497 
L 313 1497 
L 313 2009 
z
" transform="scale(0.015625)"/>
      </defs>
      <use xlink:href="#DejaVuSans-4d"/>
      <use xlink:href="#DejaVuSans-53" x="86.279297"/>
      <use xlink:href="#DejaVuSans-2d" x="149.755859"/>
      <use xlink:href="#DejaVuSans-53" x="185.839844"/>
      <use xlink:href="#DejaVuSans-53" x="249.316406"/>
      <use xlink:href="#DejaVuSans-49" x="312.792969"/>
      <use xlink:href="#DejaVuSans-4d" x="342.285156"/>
     </g>
    </g>
   </g>
   <g id="line2d_89">
    <path d="M 71.085751 367.691994 
L 75.312253 363.220427 
L 100.684148 344.557077 
L 139.431876 324.845827 
L 204.555697 304.086078 
L 300.912583 282.650393 
L 441.368483 261.181877 
" clip-path="url(#p7aa4cb1b8c)" style="fill: none; stroke: #ff4500; stroke-width: 0.75; stroke-linecap: square"/>
    <g clip-path="url(#p7aa4cb1b8c)">
     <use xlink:href="#m9f5a19c014" x="71.085751" y="367.691994" style="fill: #ff4500; stroke: #ff4500"/>
     <use xlink:href="#m9f5a19c014" x="75.312253" y="363.220427" style="fill: #ff4500; stroke: #ff4500"/>
     <use xlink:href="#m9f5a19c014" x="100.684148" y="344.557077" style="fill: #ff4500; stroke: #ff4500"/>
     <use xlink:href="#m9f5a19c014" x="139.431876" y="324.845827" style="fill: #ff4500; stroke: #ff4500"/>
     <use xlink:href="#m9f5a19c014" x="204.555697" y="304.086078" style="fill: #ff4500; stroke: #ff4500"/>
     <use xlink:href="#m9f5a19c014" x="300.912583" y="282.650393" style="fill: #ff4500; stroke: #ff4500"/>
     <use xlink:href="#m9f5a19c014" x="441.368483" y="261.181877" style="fill: #ff4500; stroke: #ff4500"/>
    </g>
   </g>
   <g id="line2d_90">
    <path d="M 50.444799 389.510537 
L 59.650699 368.455812 
L 78.459241 342.890158 
L 111.345968 315.920836 
L 162.181979 289.13071 
L 234.249745 264.946529 
L 345.6183 237.206398 
L 466.565 216.768411 
" clip-path="url(#p7aa4cb1b8c)" style="fill: none; stroke: #00ffff; stroke-width: 0.75; stroke-linecap: square"/>
   </g>
   <g id="line2d_91">
    <path d="M 66.89607 367.67332 
L 73.008288 359.741968 
L 78.588615 353.666629 
L 83.937475 348.546427 
L 89.243824 343.794056 
L 94.367576 339.791944 
L 99.767483 335.935017 
L 105.032325 332.332314 
L 110.35675 328.965855 
L 115.01037 325.926865 
L 119.853449 322.648904 
L 125.065403 319.903317 
L 130.036015 316.853122 
L 135.985051 314.183367 
L 142.312501 310.78453 
L 163.825432 301.292581 
L 193.812287 290.30455 
L 242.210439 275.78677 
L 332.844652 256.108049 
" clip-path="url(#p7aa4cb1b8c)" style="fill: none; stroke: #808080; stroke-width: 0.75; stroke-linecap: square"/>
   </g>
   <g id="line2d_92">
    <path d="M 65.586513 404.988067 
L 75.997283 382.753961 
L 85.52461 368.768071 
L 93.941127 357.747075 
L 101.787176 349.885627 
L 108.920496 343.407416 
L 115.714145 337.620861 
L 121.34895 333.384685 
L 127.636401 329.455769 
L 133.192376 325.628604 
L 138.955384 322.381463 
L 146.145106 318.841163 
L 155.047822 314.777735 
L 166.148477 309.635966 
L 178.881036 304.509619 
L 198.918549 297.321637 
L 227.251155 288.787802 
L 275.758849 277.413507 
L 379.523953 259.225479 
" clip-path="url(#p7aa4cb1b8c)" style="fill: none; stroke: #9acd32; stroke-width: 0.75; stroke-linecap: square"/>
   </g>
   <g id="line2d_93">
    <path d="M 280.410712 284.333447 
L 162.041307 316.085473 
L 122.558507 332.11285 
L 102.869367 343.122164 
L 91.06887 350.164717 
L 83.105916 356.456852 
L 77.500567 361.036202 
L 73.228124 365.185818 
L 69.986657 368.371131 
L 67.388629 370.938305 
L 65.232365 373.270749 
L 63.416776 375.293023 
L 61.96186 377.307713 
L 60.603348 379.174462 
L 59.49873 380.766326 
L 58.452356 382.750142 
L 57.650588 384.123596 
L 56.830577 385.448506 
L 56.173413 386.596885 
" clip-path="url(#p7aa4cb1b8c)" style="fill: none; stroke: #000000; stroke-width: 0.75; stroke-linecap: square"/>
   </g>
   <g id="line2d_94">
    <path d="M 56.715847 371.760585 
L 64.376203 358.176461 
L 75.330328 342.977199 
L 90.976735 326.210413 
L 109.765612 309.978594 
L 136.432755 293.723838 
L 168.056285 278.036745 
L 207.646786 260.491278 
" clip-path="url(#p7aa4cb1b8c)" style="fill: none; stroke-dasharray: 2.775,1.2; stroke-dashoffset: 0; stroke: #da70d6; stroke-width: 0.75"/>
   </g>
   <g id="line2d_95">
    <path d="M 55.056791 351.210135 
L 57.858835 343.091925 
L 60.582727 336.262967 
L 71.927664 317.723233 
L 87.195625 302.762657 
L 107.33989 288.286536 
L 122.690886 279.493935 
L 153.860971 264.663141 
" clip-path="url(#p7aa4cb1b8c)" style="fill: none; stroke-dasharray: 2.775,1.2; stroke-dashoffset: 0; stroke: #008000; stroke-width: 0.75"/>
   </g>
   <g id="line2d_96">
    <path d="M 55.859936 375.032987 
L 62.365799 361.955385 
L 72.166435 348.105081 
L 87.22773 332.534918 
L 107.736797 316.23242 
L 139.211706 298.312399 
L 177.137581 281.458064 
L 224.728861 263.629046 
" clip-path="url(#p7aa4cb1b8c)" style="fill: none; stroke-dasharray: 2.775,1.2; stroke-dashoffset: 0; stroke: #ffa500; stroke-width: 0.75"/>
   </g>
   <g id="patch_9">
    <path d="M 43.755 396.679375 
L 43.755 220.479375 
" style="fill: none; stroke: #000000; stroke-width: 0.8; stroke-linejoin: miter; stroke-linecap: square"/>
   </g>
   <g id="patch_10">
    <path d="M 458.365 396.679375 
L 458.365 220.479375 
" style="fill: none; stroke: #000000; stroke-width: 0.8; stroke-linejoin: miter; stroke-linecap: square"/>
   </g>
   <g id="patch_11">
    <path d="M 43.755 396.679375 
L 458.365 396.679375 
" style="fill: none; stroke: #000000; stroke-width: 0.8; stroke-linejoin: miter; stroke-linecap: square"/>
   </g>
   <g id="patch_12">
    <path d="M 43.755 220.479375 
L 458.365 220.479375 
" style="fill: none; stroke: #000000; stroke-width: 0.8; stroke-linejoin: miter; stroke-linecap: square"/>
   </g>
   <g id="legend_2">
    <g id="patch_13">
     <path d="M 228.685 392.679375 
L 452.765 392.679375 
Q 454.365 392.679375 454.365 391.079375 
L 454.365 344.589375 
Q 454.365 342.989375 452.765 342.989375 
L 228.685 342.989375 
Q 227.085 342.989375 227.085 344.589375 
L 227.085 391.079375 
Q 227.085 392.679375 228.685 392.679375 
z
" style="fill: #ffffff; opacity: 0.8; stroke: #cccccc; stroke-linejoin: miter"/>
    </g>
    <g id="line2d_97">
     <path d="M 230.285 349.468125 
L 238.285 349.468125 
L 246.285 349.468125 
" style="fill: none; stroke: #ff4500; stroke-width: 0.75; stroke-linecap: square"/>
     <g>
      <use xlink:href="#m9f5a19c014" x="238.285" y="349.468125" style="fill: #ff4500; stroke: #ff4500"/>
     </g>
    </g>
    <g id="text_49">
     <!-- NIF (Ours) -->
     <g transform="translate(252.685 352.268125) scale(0.08 -0.08)">
      <use xlink:href="#DejaVuSans-4e"/>
      <use xlink:href="#DejaVuSans-49" x="74.804688"/>
      <use xlink:href="#DejaVuSans-46" x="104.296875"/>
      <use xlink:href="#DejaVuSans-20" x="161.816406"/>
      <use xlink:href="#DejaVuSans-28" x="193.603516"/>
      <use xlink:href="#DejaVuSans-4f" x="232.617188"/>
      <use xlink:href="#DejaVuSans-75" x="311.328125"/>
      <use xlink:href="#DejaVuSans-72" x="374.707031"/>
      <use xlink:href="#DejaVuSans-73" x="415.820312"/>
      <use xlink:href="#DejaVuSans-29" x="467.919922"/>
     </g>
    </g>
    <g id="line2d_98">
     <path d="M 230.285 361.210625 
L 238.285 361.210625 
L 246.285 361.210625 
" style="fill: none; stroke: #00ffff; stroke-width: 0.75; stroke-linecap: square"/>
    </g>
    <g id="text_50">
     <!-- BPG -->
     <g transform="translate(252.685 364.010625) scale(0.08 -0.08)">
      <use xlink:href="#DejaVuSans-42"/>
      <use xlink:href="#DejaVuSans-50" x="68.603516"/>
      <use xlink:href="#DejaVuSans-47" x="128.90625"/>
     </g>
    </g>
    <g id="line2d_99">
     <path d="M 230.285 372.953125 
L 238.285 372.953125 
L 246.285 372.953125 
" style="fill: none; stroke: #808080; stroke-width: 0.75; stroke-linecap: square"/>
    </g>
    <g id="text_51">
     <!-- WebP -->
     <g transform="translate(252.685 375.753125) scale(0.08 -0.08)">
      <use xlink:href="#DejaVuSans-57"/>
      <use xlink:href="#DejaVuSans-65" x="93.001953"/>
      <use xlink:href="#DejaVuSans-62" x="154.525391"/>
      <use xlink:href="#DejaVuSans-50" x="218.001953"/>
     </g>
    </g>
    <g id="line2d_100">
     <path d="M 230.285 384.695625 
L 238.285 384.695625 
L 246.285 384.695625 
" style="fill: none; stroke: #9acd32; stroke-width: 0.75; stroke-linecap: square"/>
    </g>
    <g id="text_52">
     <!-- JPEG -->
     <g transform="translate(252.685 387.495625) scale(0.08 -0.08)">
      <use xlink:href="#DejaVuSans-4a"/>
      <use xlink:href="#DejaVuSans-50" x="29.492188"/>
      <use xlink:href="#DejaVuSans-45" x="89.794922"/>
      <use xlink:href="#DejaVuSans-47" x="152.978516"/>
     </g>
    </g>
    <g id="line2d_101">
     <path d="M 309.24 349.468125 
L 317.24 349.468125 
L 325.24 349.468125 
" style="fill: none; stroke: #000000; stroke-width: 0.75; stroke-linecap: square"/>
    </g>
    <g id="text_53">
     <!-- JPEG2000 -->
     <g transform="translate(331.64 352.268125) scale(0.08 -0.08)">
      <use xlink:href="#DejaVuSans-4a"/>
      <use xlink:href="#DejaVuSans-50" x="29.492188"/>
      <use xlink:href="#DejaVuSans-45" x="89.794922"/>
      <use xlink:href="#DejaVuSans-47" x="152.978516"/>
      <use xlink:href="#DejaVuSans-32" x="230.46875"/>
      <use xlink:href="#DejaVuSans-30" x="294.091797"/>
      <use xlink:href="#DejaVuSans-30" x="357.714844"/>
      <use xlink:href="#DejaVuSans-30" x="421.337891"/>
     </g>
    </g>
    <g id="line2d_102">
     <path d="M 309.24 361.530625 
L 317.24 361.530625 
L 325.24 361.530625 
" style="fill: none; stroke-dasharray: 2.775,1.2; stroke-dashoffset: 0; stroke: #da70d6; stroke-width: 0.75"/>
    </g>
    <g id="text_54">
     <!-- Ballè (Hyperprior) [2017] -->
     <g transform="translate(331.64 364.330625) scale(0.08 -0.08)">
      <use xlink:href="#DejaVuSans-42"/>
      <use xlink:href="#DejaVuSans-61" x="68.603516"/>
      <use xlink:href="#DejaVuSans-6c" x="129.882812"/>
      <use xlink:href="#DejaVuSans-6c" x="157.666016"/>
      <use xlink:href="#DejaVuSans-e8" x="185.449219"/>
      <use xlink:href="#DejaVuSans-20" x="246.972656"/>
      <use xlink:href="#DejaVuSans-28" x="278.759766"/>
      <use xlink:href="#DejaVuSans-48" x="317.773438"/>
      <use xlink:href="#DejaVuSans-79" x="392.96875"/>
      <use xlink:href="#DejaVuSans-70" x="452.148438"/>
      <use xlink:href="#DejaVuSans-65" x="515.625"/>
      <use xlink:href="#DejaVuSans-72" x="577.148438"/>
      <use xlink:href="#DejaVuSans-70" x="618.261719"/>
      <use xlink:href="#DejaVuSans-72" x="681.738281"/>
      <use xlink:href="#DejaVuSans-69" x="722.851562"/>
      <use xlink:href="#DejaVuSans-6f" x="750.634766"/>
      <use xlink:href="#DejaVuSans-72" x="811.816406"/>
      <use xlink:href="#DejaVuSans-29" x="852.929688"/>
      <use xlink:href="#DejaVuSans-20" x="891.943359"/>
      <use xlink:href="#DejaVuSans-5b" x="923.730469"/>
      <use xlink:href="#DejaVuSans-32" x="962.744141"/>
      <use xlink:href="#DejaVuSans-30" x="1026.367188"/>
      <use xlink:href="#DejaVuSans-31" x="1089.990234"/>
      <use xlink:href="#DejaVuSans-37" x="1153.613281"/>
      <use xlink:href="#DejaVuSans-5d" x="1217.236328"/>
     </g>
    </g>
    <g id="line2d_103">
     <path d="M 309.24 373.273125 
L 317.24 373.273125 
L 325.24 373.273125 
" style="fill: none; stroke-dasharray: 2.775,1.2; stroke-dashoffset: 0; stroke: #008000; stroke-width: 0.75"/>
    </g>
    <g id="text_55">
     <!-- Xie [2021] -->
     <g transform="translate(331.64 376.073125) scale(0.08 -0.08)">
      <use xlink:href="#DejaVuSans-58"/>
      <use xlink:href="#DejaVuSans-69" x="68.505859"/>
      <use xlink:href="#DejaVuSans-65" x="96.289062"/>
      <use xlink:href="#DejaVuSans-20" x="157.8125"/>
      <use xlink:href="#DejaVuSans-5b" x="189.599609"/>
      <use xlink:href="#DejaVuSans-32" x="228.613281"/>
      <use xlink:href="#DejaVuSans-30" x="292.236328"/>
      <use xlink:href="#DejaVuSans-32" x="355.859375"/>
      <use xlink:href="#DejaVuSans-31" x="419.482422"/>
      <use xlink:href="#DejaVuSans-5d" x="483.105469"/>
     </g>
    </g>
    <g id="line2d_104">
     <path d="M 309.24 385.015625 
L 317.24 385.015625 
L 325.24 385.015625 
" style="fill: none; stroke-dasharray: 2.775,1.2; stroke-dashoffset: 0; stroke: #ffa500; stroke-width: 0.75"/>
    </g>
    <g id="text_56">
     <!-- Ballè (Factorized Prior) [2017] -->
     <g transform="translate(331.64 387.815625) scale(0.08 -0.08)">
      <use xlink:href="#DejaVuSans-42"/>
      <use xlink:href="#DejaVuSans-61" x="68.603516"/>
      <use xlink:href="#DejaVuSans-6c" x="129.882812"/>
      <use xlink:href="#DejaVuSans-6c" x="157.666016"/>
      <use xlink:href="#DejaVuSans-e8" x="185.449219"/>
      <use xlink:href="#DejaVuSans-20" x="246.972656"/>
      <use xlink:href="#DejaVuSans-28" x="278.759766"/>
      <use xlink:href="#DejaVuSans-46" x="317.773438"/>
      <use xlink:href="#DejaVuSans-61" x="366.167969"/>
      <use xlink:href="#DejaVuSans-63" x="427.447266"/>
      <use xlink:href="#DejaVuSans-74" x="482.427734"/>
      <use xlink:href="#DejaVuSans-6f" x="521.636719"/>
      <use xlink:href="#DejaVuSans-72" x="582.818359"/>
      <use xlink:href="#DejaVuSans-69" x="623.931641"/>
      <use xlink:href="#DejaVuSans-7a" x="651.714844"/>
      <use xlink:href="#DejaVuSans-65" x="704.205078"/>
      <use xlink:href="#DejaVuSans-64" x="765.728516"/>
      <use xlink:href="#DejaVuSans-20" x="829.205078"/>
      <use xlink:href="#DejaVuSans-50" x="860.992188"/>
      <use xlink:href="#DejaVuSans-72" x="919.544922"/>
      <use xlink:href="#DejaVuSans-69" x="960.658203"/>
      <use xlink:href="#DejaVuSans-6f" x="988.441406"/>
      <use xlink:href="#DejaVuSans-72" x="1049.623047"/>
      <use xlink:href="#DejaVuSans-29" x="1090.736328"/>
      <use xlink:href="#DejaVuSans-20" x="1129.75"/>
      <use xlink:href="#DejaVuSans-5b" x="1161.537109"/>
      <use xlink:href="#DejaVuSans-32" x="1200.550781"/>
      <use xlink:href="#DejaVuSans-30" x="1264.173828"/>
      <use xlink:href="#DejaVuSans-31" x="1327.796875"/>
      <use xlink:href="#DejaVuSans-37" x="1391.419922"/>
      <use xlink:href="#DejaVuSans-5d" x="1455.042969"/>
     </g>
    </g>
   </g>
  </g>
 </g>
 <defs>
  <clipPath id="p9ee2fe2bca">
   <rect x="43.755" y="10.239375" width="414.61" height="176.2"/>
  </clipPath>
  <clipPath id="p7aa4cb1b8c">
   <rect x="43.755" y="220.479375" width="414.61" height="176.2"/>
  </clipPath>
 </defs>
</svg>
